<?xml version="1.0" encoding="utf-8" standalone="no"?>
<!DOCTYPE svg PUBLIC "-//W3C//DTD SVG 1.1//EN"
  "http://www.w3.org/Graphics/SVG/1.1/DTD/svg11.dtd">
<svg xmlns:xlink="http://www.w3.org/1999/xlink" width="483.692062pt" height="216.45575pt" viewBox="0 0 483.692062 216.45575" xmlns="http://www.w3.org/2000/svg" version="1.1">
 <metadata>
  <rdf:RDF xmlns:dc="http://purl.org/dc/elements/1.1/" xmlns:cc="http://creativecommons.org/ns#" xmlns:rdf="http://www.w3.org/1999/02/22-rdf-syntax-ns#">
   <cc:Work>
    <dc:type rdf:resource="http://purl.org/dc/dcmitype/StillImage"/>
    <dc:date>2026-10-08T16:46:59.402829</dc:date>
    <dc:format>image/svg+xml</dc:format>
    <dc:creator>
     <cc:Agent>
      <dc:title>Matplotlib v3.10.9, https://matplotlib.org/</dc:title>
     </cc:Agent>
    </dc:creator>
   </cc:Work>
  </rdf:RDF>
 </metadata>
 <defs>
  <style type="text/css">*{stroke-linejoin: round; stroke-linecap: butt}</style>
 </defs>
 <g id="figure_1">
  <g id="patch_1">
   <path d="M 0 216.45575 
L 483.692062 216.45575 
L 483.692062 -0 
L 0 -0 
z
" style="fill: #ffffff"/>
  </g>
  <g id="axes_1">
   <g id="patch_2">
    <path d="M 49.444063 180.448 
L 241.070062 180.448 
L 241.070062 82.116 
L 49.444063 82.116 
z
" style="fill: #ffffff"/>
   </g>
   <g id="patch_3">
    <path d="M 49.444063 180.448 
L 61.420687 180.448 
L 61.420687 82.116 
L 49.444063 82.116 
z
" clip-path="url(#pc3d8a97baf)" style="fill: #777777; opacity: 0.09"/>
   </g>
   <g id="matplotlib.axis_1">
    <g id="xtick_1">
     <g id="line2d_1">
      <defs>
       <path id="m062ee4a1ff" d="M 0 0 
L 0 3.5 
" style="stroke: #000000; stroke-width: 0.8"/>
      </defs>
      <g>
       <use xlink:href="#m062ee4a1ff" x="49.444063" y="180.448" style="stroke: #000000; stroke-width: 0.8"/>
      </g>
     </g>
     <g id="text_1">
      <text style="font-size: 9.2px; font-family: 'DejaVu Sans'; text-anchor: middle" x="49.444063" y="194.438562" transform="rotate(-0 49.444063 194.438562)">0</text>
     </g>
    </g>
    <g id="xtick_2">
     <g id="line2d_2">
      <g>
       <use xlink:href="#m062ee4a1ff" x="105.584492" y="180.448" style="stroke: #000000; stroke-width: 0.8"/>
      </g>
     </g>
     <g id="text_2">
      <text style="font-size: 9.2px; font-family: 'DejaVu Sans'; text-anchor: middle" x="105.584492" y="194.438562" transform="rotate(-0 105.584492 194.438562)">150</text>
     </g>
    </g>
    <g id="xtick_3">
     <g id="line2d_3">
      <g>
       <use xlink:href="#m062ee4a1ff" x="161.724922" y="180.448" style="stroke: #000000; stroke-width: 0.8"/>
      </g>
     </g>
     <g id="text_3">
      <text style="font-size: 9.2px; font-family: 'DejaVu Sans'; text-anchor: middle" x="161.724922" y="194.438562" transform="rotate(-0 161.724922 194.438562)">300</text>
     </g>
    </g>
    <g id="xtick_4">
     <g id="line2d_4">
      <g>
       <use xlink:href="#m062ee4a1ff" x="217.865352" y="180.448" style="stroke: #000000; stroke-width: 0.8"/>
      </g>
     </g>
     <g id="text_4">
      <text style="font-size: 9.2px; font-family: 'DejaVu Sans'; text-anchor: middle" x="217.865352" y="194.438562" transform="rotate(-0 217.865352 194.438562)">450</text>
     </g>
    </g>
    <g id="text_5">
     <text style="font-size: 9.2px; font-family: 'DejaVu Sans'; text-anchor: middle" x="145.257062" y="207.342437" transform="rotate(-0 145.257062 207.342437)">Continuation updates</text>
    </g>
   </g>
   <g id="matplotlib.axis_2">
    <g id="ytick_1">
     <g id="line2d_5">
      <path d="M 49.444063 161.996313 
L 241.070062 161.996313 
" clip-path="url(#pc3d8a97baf)" style="fill: none; stroke: #b0b0b0; stroke-opacity: 0.15; stroke-width: 0.6; stroke-linecap: square"/>
     </g>
     <g id="line2d_6">
      <defs>
       <path id="md8194fa7b0" d="M 0 0 
L -3.5 0 
" style="stroke: #000000; stroke-width: 0.8"/>
      </defs>
      <g>
       <use xlink:href="#md8194fa7b0" x="49.444063" y="161.996313" style="stroke: #000000; stroke-width: 0.8"/>
      </g>
     </g>
     <g id="text_6">
      <text style="font-size: 9.2px; font-family: 'DejaVu Sans'; text-anchor: end" x="42.444063" y="165.491594" transform="rotate(-0 42.444063 165.491594)">−1.2</text>
     </g>
    </g>
    <g id="ytick_2">
     <g id="line2d_7">
      <path d="M 49.444063 139.840085 
L 241.070062 139.840085 
" clip-path="url(#pc3d8a97baf)" style="fill: none; stroke: #b0b0b0; stroke-opacity: 0.15; stroke-width: 0.6; stroke-linecap: square"/>
     </g>
     <g id="line2d_8">
      <g>
       <use xlink:href="#md8194fa7b0" x="49.444063" y="139.840085" style="stroke: #000000; stroke-width: 0.8"/>
      </g>
     </g>
     <g id="text_7">
      <text style="font-size: 9.2px; font-family: 'DejaVu Sans'; text-anchor: end" x="42.444063" y="143.335366" transform="rotate(-0 42.444063 143.335366)">−0.8</text>
     </g>
    </g>
    <g id="ytick_3">
     <g id="line2d_9">
      <path d="M 49.444063 117.683857 
L 241.070062 117.683857 
" clip-path="url(#pc3d8a97baf)" style="fill: none; stroke: #b0b0b0; stroke-opacity: 0.15; stroke-width: 0.6; stroke-linecap: square"/>
     </g>
     <g id="line2d_10">
      <g>
       <use xlink:href="#md8194fa7b0" x="49.444063" y="117.683857" style="stroke: #000000; stroke-width: 0.8"/>
      </g>
     </g>
     <g id="text_8">
      <text style="font-size: 9.2px; font-family: 'DejaVu Sans'; text-anchor: end" x="42.444063" y="121.179138" transform="rotate(-0 42.444063 121.179138)">−0.4</text>
     </g>
    </g>
    <g id="ytick_4">
     <g id="line2d_11">
      <path d="M 49.444063 95.527629 
L 241.070062 95.527629 
" clip-path="url(#pc3d8a97baf)" style="fill: none; stroke: #b0b0b0; stroke-opacity: 0.15; stroke-width: 0.6; stroke-linecap: square"/>
     </g>
     <g id="line2d_12">
      <g>
       <use xlink:href="#md8194fa7b0" x="49.444063" y="95.527629" style="stroke: #000000; stroke-width: 0.8"/>
      </g>
     </g>
     <g id="text_9">
      <text style="font-size: 9.2px; font-family: 'DejaVu Sans'; text-anchor: end" x="42.444063" y="99.02291" transform="rotate(-0 42.444063 99.02291)">0.0</text>
     </g>
    </g>
    <g id="text_10">
     <text style="font-size: 9.2px; font-family: 'DejaVu Sans'; text-anchor: middle" x="14.190563" y="131.282" transform="rotate(-90 14.190563 131.282)">Difference (nats)</text>
    </g>
    <g id="text_11">
     <text style="font-size: 9.2px; font-family: 'DejaVu Sans'; text-anchor: start" x="49.444063" y="79.116" transform="rotate(-0 49.444063 79.116)">1e−3</text>
    </g>
   </g>
   <g id="line2d_13">
    <path d="M 49.444063 95.527629 
L 55.058105 95.532851 
L 55.432375 95.424667 
L 55.806645 95.68549 
L 56.180914 95.611267 
L 56.555184 95.821347 
L 56.929453 95.420169 
L 57.303723 95.751468 
L 57.677992 95.662282 
L 58.052262 95.918413 
L 58.426531 95.301986 
L 59.17507 95.702773 
L 59.54934 95.730743 
L 59.923609 95.398173 
L 60.297879 95.593654 
L 61.794957 95.518201 
L 62.169227 95.656652 
L 62.543496 95.507532 
L 62.917766 95.885056 
L 63.292035 95.717134 
L 63.666305 95.382196 
L 64.040574 95.321036 
L 64.414844 95.884549 
L 64.789113 95.462829 
L 65.163383 95.94614 
L 65.537652 95.330042 
L 65.911922 95.849428 
L 66.660461 95.690507 
L 67.03473 95.826951 
L 67.409 95.650639 
L 67.78327 96.02814 
L 68.157539 94.708668 
L 68.531809 95.72572 
L 68.906078 95.71849 
L 69.280348 95.932335 
L 69.654617 95.871605 
L 70.028887 95.541136 
L 70.777426 95.686781 
L 71.151695 95.924871 
L 71.525965 95.613768 
L 71.900234 95.582074 
L 72.274504 95.403512 
L 72.648773 95.723425 
L 73.023043 95.18965 
L 73.397312 95.757514 
L 73.771582 95.620784 
L 74.145852 95.996636 
L 74.520121 96.0419 
L 74.894391 95.428353 
L 75.64293 95.952601 
L 76.391469 95.478837 
L 77.514277 95.605304 
L 77.888547 95.254658 
L 78.262816 95.393965 
L 78.637086 95.895326 
L 79.011355 95.50461 
L 79.385625 95.830225 
L 79.759895 95.182633 
L 80.134164 95.515182 
L 80.508434 96.260443 
L 80.882703 95.782265 
L 81.256973 95.729797 
L 81.631242 95.986664 
L 82.005512 95.497089 
L 82.379781 95.385064 
L 82.754051 95.457618 
L 83.12832 95.691499 
L 83.50259 95.544068 
L 83.876859 96.081687 
L 84.251129 95.821075 
L 84.625398 95.258458 
L 84.999668 95.423401 
L 85.373937 95.240286 
L 85.748207 95.734738 
L 86.122477 95.375879 
L 86.496746 95.642547 
L 86.871016 95.735659 
L 87.245285 95.598594 
L 87.619555 95.736587 
L 87.993824 95.665393 
L 88.368094 95.408763 
L 88.742363 95.639093 
L 89.116633 95.335163 
L 89.865172 95.807765 
L 90.613711 95.607916 
L 91.36225 95.611691 
L 91.73652 95.549922 
L 92.485059 95.670564 
L 92.859328 95.47534 
L 93.233598 95.527145 
L 93.607867 95.370128 
L 93.982137 95.755973 
L 94.356406 95.605147 
L 94.730676 95.890955 
L 95.104945 95.726308 
L 95.479215 95.798157 
L 95.853484 95.731473 
L 96.227754 95.87739 
L 96.602023 95.109304 
L 96.976293 95.626009 
L 97.350562 95.525227 
L 97.724832 95.633873 
L 98.099102 95.557215 
L 98.473371 95.886858 
L 98.847641 95.411653 
L 99.22191 95.699016 
L 99.59618 95.637218 
L 99.970449 95.22498 
L 100.344719 95.171976 
L 100.718988 95.740575 
L 101.093258 95.291302 
L 101.467527 95.708311 
L 101.841797 95.635085 
L 102.216066 95.804941 
L 102.590336 95.556632 
L 102.964605 95.736681 
L 103.338875 95.526108 
L 104.087414 95.835672 
L 104.461684 95.400732 
L 104.835953 95.76025 
L 105.210223 95.182618 
L 105.584492 95.881359 
L 105.958762 95.85104 
L 106.707301 95.296371 
L 107.08157 95.600286 
L 107.45584 96.108909 
L 107.830109 95.680378 
L 108.204379 95.44358 
L 108.578648 95.664603 
L 108.952918 95.455356 
L 109.327187 95.56885 
L 109.701457 95.400561 
L 110.449996 95.833366 
L 110.824266 95.538044 
L 111.198535 95.77101 
L 111.572805 95.662436 
L 111.947074 95.436975 
L 112.695613 95.594946 
L 113.069883 95.529887 
L 113.444152 95.828116 
L 113.818422 95.72739 
L 114.192691 95.829435 
L 114.566961 95.085377 
L 114.94123 95.774681 
L 115.68977 95.950053 
L 116.438309 95.526576 
L 116.812578 96.358252 
L 117.186848 95.877554 
L 117.561117 95.110855 
L 117.935387 96.108793 
L 118.309656 95.900206 
L 118.683926 95.527014 
L 119.058195 95.451033 
L 119.806734 95.773646 
L 120.181004 95.533874 
L 120.555273 95.452352 
L 120.929543 95.605962 
L 122.052352 95.522157 
L 122.426621 95.351572 
L 123.17516 95.605519 
L 124.297969 95.488633 
L 124.672238 95.71922 
L 125.046508 95.27741 
L 125.420777 95.961085 
L 126.169316 95.323987 
L 126.543586 95.674467 
L 126.917855 95.382967 
L 127.292125 96.043086 
L 127.666395 95.45894 
L 128.040664 95.760983 
L 128.414934 95.375271 
L 129.163473 96.277955 
L 129.537742 95.708432 
L 129.912012 96.126976 
L 130.286281 96.138256 
L 130.660551 95.473745 
L 131.03482 95.229771 
L 131.40909 95.671633 
L 131.783359 95.403384 
L 132.531898 95.801189 
L 133.280438 95.735471 
L 133.654707 95.900402 
L 134.028977 95.099738 
L 134.403246 95.404223 
L 135.151785 95.529808 
L 135.526055 95.437402 
L 136.274594 95.775053 
L 136.648863 95.187033 
L 137.023133 95.660844 
L 138.520211 95.647512 
L 138.89448 95.764314 
L 139.26875 95.18053 
L 139.64302 95.394853 
L 140.017289 96.058646 
L 140.391559 95.337531 
L 140.765828 95.843098 
L 141.140098 94.597677 
L 141.514367 95.238385 
L 141.888637 95.430368 
L 142.262906 95.42645 
L 142.637176 95.885126 
L 143.011445 95.692267 
L 143.385715 95.62729 
L 143.759984 95.90748 
L 144.134254 95.32417 
L 144.508523 95.534106 
L 145.631332 95.780768 
L 146.005602 95.387606 
L 146.754141 95.407386 
L 147.12841 95.778266 
L 147.876949 95.127351 
L 148.625488 95.513355 
L 148.999758 95.33978 
L 149.374027 95.736069 
L 150.122566 95.541996 
L 150.496836 95.70686 
L 150.871105 95.441263 
L 151.245375 95.552092 
L 151.619645 95.32934 
L 151.993914 95.417543 
L 152.742453 95.888099 
L 153.116723 95.94459 
L 153.490992 95.581585 
L 153.865262 96.03861 
L 154.239531 95.534932 
L 154.613801 95.666814 
L 154.98807 95.422223 
L 155.36234 95.85279 
L 156.110879 95.62337 
L 156.485148 95.925601 
L 156.859418 95.430221 
L 157.607957 95.948965 
L 157.982227 95.439296 
L 158.356496 95.225846 
L 158.730766 96.06556 
L 159.105035 95.494261 
L 159.479305 95.843486 
L 159.853574 95.8518 
L 160.227844 95.320358 
L 160.602113 95.790826 
L 160.976383 95.500401 
L 161.350652 95.608389 
L 161.724922 95.426046 
L 162.099191 95.446397 
L 162.473461 95.073966 
L 162.84773 95.979275 
L 163.222 95.462181 
L 163.970539 95.346431 
L 164.344809 95.792654 
L 164.719078 95.480727 
L 165.093348 95.537624 
L 165.467617 95.768604 
L 165.841887 95.607859 
L 166.216156 95.934353 
L 166.590426 95.328686 
L 167.338965 96.120833 
L 167.713234 95.258199 
L 168.087504 96.096603 
L 168.461773 95.283761 
L 168.836043 95.533385 
L 169.210312 95.97959 
L 169.584582 96.205788 
L 170.333121 95.170733 
L 170.707391 95.3615 
L 171.08166 95.246579 
L 171.45593 95.529205 
L 172.578738 95.574984 
L 172.953008 96.062003 
L 173.327277 95.986572 
L 174.075816 96.967911 
L 174.450086 95.440145 
L 174.824355 95.330047 
L 175.198625 95.459623 
L 175.572895 95.944778 
L 175.947164 95.248073 
L 176.321434 95.401578 
L 176.695703 95.801114 
L 177.069973 95.442231 
L 177.444242 95.48784 
L 177.818512 95.775326 
L 179.31559 95.829009 
L 179.689859 95.395915 
L 180.064129 96.82796 
L 180.438398 95.42181 
L 180.812668 95.526111 
L 181.186937 95.444822 
L 181.561207 95.601856 
L 181.935477 94.929152 
L 182.309746 95.47075 
L 182.684016 95.385008 
L 183.432555 95.402127 
L 183.806824 95.152156 
L 184.555363 95.900863 
L 184.929633 95.364504 
L 185.678172 95.731283 
L 186.052441 95.667415 
L 186.426711 95.424588 
L 186.80098 95.580796 
L 187.17525 95.873405 
L 187.54952 95.593022 
L 187.923789 95.630441 
L 188.298059 95.508482 
L 188.672328 95.733475 
L 189.420867 95.427283 
L 189.795137 95.667812 
L 190.169406 95.097984 
L 190.543676 95.511238 
L 190.917945 95.758582 
L 191.666484 95.482144 
L 192.415023 95.686142 
L 192.789293 95.271748 
L 193.537832 96.050915 
L 193.912102 95.206712 
L 194.286371 95.68492 
L 195.03491 95.401699 
L 195.40918 95.919635 
L 195.783449 95.314946 
L 196.157719 95.495417 
L 196.531988 95.812502 
L 196.906258 95.794598 
L 197.280527 95.985335 
L 197.654797 95.349148 
L 198.029066 95.118639 
L 198.403336 95.374017 
L 198.777605 95.859379 
L 199.151875 95.544551 
L 199.900414 95.357893 
L 200.274684 95.44102 
L 200.648953 95.644029 
L 201.397492 95.533523 
L 201.771762 95.804947 
L 202.146031 95.327618 
L 202.520301 95.10871 
L 202.89457 95.457688 
L 203.26884 95.365089 
L 204.017379 95.826415 
L 204.391648 95.509405 
L 204.765918 95.638881 
L 205.140187 95.463054 
L 205.514457 95.590973 
L 205.888727 95.866068 
L 206.262996 94.935882 
L 206.637266 95.674273 
L 207.011535 95.936471 
L 207.385805 95.327168 
L 207.760074 95.938926 
L 208.134344 95.441544 
L 208.508613 96.006975 
L 208.882883 96.028746 
L 209.257152 95.649201 
L 210.005691 95.569753 
L 210.75423 95.762131 
L 211.1285 95.839204 
L 211.877039 94.787353 
L 212.251309 95.608136 
L 212.625578 95.847858 
L 212.999848 94.863445 
L 213.374117 95.636209 
L 213.748387 95.687701 
L 214.122656 95.530555 
L 214.871195 95.578887 
L 215.245465 95.636379 
L 215.619734 95.849512 
L 215.994004 95.622845 
L 216.742543 95.698843 
L 217.116812 95.436797 
L 217.491082 96.040831 
L 217.865352 95.780644 
L 218.613891 94.816545 
L 218.98816 95.331579 
L 219.736699 95.599599 
L 220.110969 96.127081 
L 220.485238 95.173592 
L 220.859508 95.824069 
L 221.982316 95.289159 
L 222.730855 95.576578 
L 223.105125 95.502834 
L 223.479395 95.597367 
L 223.853664 95.986458 
L 224.227934 95.732158 
L 224.602203 95.751274 
L 224.976473 94.636638 
L 225.350742 95.702035 
L 225.725012 95.339614 
L 226.099281 95.688293 
L 226.473551 95.550973 
L 226.84782 95.097012 
L 227.22209 95.463057 
L 227.596359 95.334608 
L 227.970629 95.661738 
L 228.344898 95.814351 
L 228.719168 95.487442 
L 229.093437 95.427307 
L 229.467707 95.605673 
L 230.216246 95.352389 
L 230.590516 95.50557 
L 230.964785 95.427761 
L 231.713324 95.682288 
L 232.087594 94.957305 
L 232.461863 95.515596 
L 233.210402 95.58092 
L 233.584672 95.324035 
L 233.958941 95.396706 
L 234.333211 95.592257 
L 235.08175 95.395957 
L 235.45602 95.482391 
L 235.830289 95.444398 
L 236.204559 95.59385 
L 236.578828 95.542463 
L 236.953098 95.706749 
L 237.701637 95.344187 
L 238.450176 95.547078 
L 238.824445 95.552895 
L 239.198715 95.827115 
L 239.572984 95.59876 
L 239.947254 95.918743 
L 240.321523 95.886302 
L 240.695793 95.563102 
L 240.695793 95.563102 
" clip-path="url(#pc3d8a97baf)" style="fill: none; stroke: #0072b2; stroke-opacity: 0.2; stroke-width: 0.65; stroke-linecap: square"/>
   </g>
   <g id="line2d_14">
    <path d="M 61.233553 95.604213 
L 85.186803 95.628156 
L 109.140053 95.629118 
L 133.093303 95.584507 
L 157.046553 95.595666 
L 180.999803 95.622722 
L 204.953053 95.576177 
L 228.906303 95.527116 
" clip-path="url(#pc3d8a97baf)" style="fill: none; stroke: #0072b2; stroke-width: 1.65; stroke-linecap: square"/>
    <defs>
     <path id="mfdc39e6590" d="M 0 1.75 
C 0.464105 1.75 0.909265 1.565609 1.237437 1.237437 
C 1.565609 0.909265 1.75 0.464105 1.75 0 
C 1.75 -0.464105 1.565609 -0.909265 1.237437 -1.237437 
C 0.909265 -1.565609 0.464105 -1.75 0 -1.75 
C -0.464105 -1.75 -0.909265 -1.565609 -1.237437 -1.237437 
C -1.565609 -0.909265 -1.75 -0.464105 -1.75 0 
C -1.75 0.464105 -1.565609 0.909265 -1.237437 1.237437 
C -0.909265 1.565609 -0.464105 1.75 0 1.75 
z
" style="stroke: #0072b2"/>
    </defs>
    <g clip-path="url(#pc3d8a97baf)">
     <use xlink:href="#mfdc39e6590" x="61.233553" y="95.604213" style="fill: #0072b2; stroke: #0072b2"/>
     <use xlink:href="#mfdc39e6590" x="85.186803" y="95.628156" style="fill: #0072b2; stroke: #0072b2"/>
     <use xlink:href="#mfdc39e6590" x="109.140053" y="95.629118" style="fill: #0072b2; stroke: #0072b2"/>
     <use xlink:href="#mfdc39e6590" x="133.093303" y="95.584507" style="fill: #0072b2; stroke: #0072b2"/>
     <use xlink:href="#mfdc39e6590" x="157.046553" y="95.595666" style="fill: #0072b2; stroke: #0072b2"/>
     <use xlink:href="#mfdc39e6590" x="180.999803" y="95.622722" style="fill: #0072b2; stroke: #0072b2"/>
     <use xlink:href="#mfdc39e6590" x="204.953053" y="95.576177" style="fill: #0072b2; stroke: #0072b2"/>
     <use xlink:href="#mfdc39e6590" x="228.906303" y="95.527116" style="fill: #0072b2; stroke: #0072b2"/>
    </g>
   </g>
   <g id="line2d_15">
    <path d="M 61.233553 95.602836 
L 85.186803 95.62951 
L 109.140053 95.626841 
L 133.093303 95.585668 
L 157.046553 95.598349 
L 180.999803 95.618758 
L 204.953053 95.577311 
L 228.906303 95.54416 
" clip-path="url(#pc3d8a97baf)" style="fill: none; stroke-dasharray: 5.55,2.4; stroke-dashoffset: 0; stroke: #0072b2; stroke-width: 1.5"/>
   </g>
   <g id="line2d_16">
    <path d="M 49.444063 95.527629 
L 50.192602 95.681138 
L 50.566871 95.759167 
L 51.31541 95.565059 
L 51.68968 96.157565 
L 52.063949 95.088001 
L 52.438219 95.737111 
L 52.812488 96.059174 
L 53.186758 95.646963 
L 53.561027 95.641131 
L 53.935297 96.506187 
L 54.309566 94.816516 
L 54.683836 96.122911 
L 55.058105 95.567542 
L 55.432375 94.479435 
L 55.806645 97.057811 
L 56.180914 96.42826 
L 56.555184 98.370354 
L 56.929453 94.553592 
L 57.303723 97.718368 
L 57.677992 96.843149 
L 58.052262 99.294237 
L 58.426531 93.32163 
L 59.17507 97.336284 
L 59.54934 97.497516 
L 59.923609 94.238435 
L 60.297879 95.705142 
L 61.046418 96.509672 
L 61.420687 95.550536 
L 61.794957 95.884602 
L 62.169227 96.904569 
L 62.543496 95.849545 
L 62.917766 99.808496 
L 63.292035 97.543644 
L 63.666305 92.577856 
L 64.040574 93.031561 
L 64.414844 98.823156 
L 64.789113 96.743219 
L 65.163383 100.626153 
L 65.537652 94.495831 
L 65.911922 98.300313 
L 66.286191 96.196448 
L 66.660461 98.081061 
L 67.03473 98.466956 
L 67.409 96.856814 
L 67.78327 98.773015 
L 68.157539 88.903211 
L 68.531809 96.433197 
L 68.906078 97.60307 
L 69.280348 99.285624 
L 69.654617 99.022529 
L 70.028887 95.500668 
L 70.403156 94.848527 
L 70.777426 96.18243 
L 71.151695 98.499227 
L 71.525965 94.389109 
L 71.900234 95.906832 
L 72.274504 95.147285 
L 72.648773 95.566097 
L 73.023043 92.811043 
L 73.397312 97.842678 
L 73.771582 96.70533 
L 74.145852 99.260231 
L 74.520121 99.636315 
L 74.894391 93.202745 
L 75.26866 94.858675 
L 75.64293 97.179483 
L 76.017199 101.88407 
L 76.391469 97.916748 
L 76.765738 96.561937 
L 77.140008 98.419648 
L 77.514277 101.077053 
L 77.888547 92.223589 
L 78.262816 91.36968 
L 78.637086 98.038151 
L 79.011355 95.134833 
L 79.385625 98.348629 
L 79.759895 88.50282 
L 80.508434 100.154144 
L 80.882703 97.341193 
L 81.256973 96.10486 
L 81.631242 100.006453 
L 82.005512 94.288528 
L 82.379781 94.395806 
L 82.754051 93.728988 
L 83.12832 96.701798 
L 83.50259 94.657459 
L 83.876859 102.747355 
L 84.251129 99.612531 
L 84.625398 92.100619 
L 84.999668 94.55011 
L 85.373937 92.009124 
L 85.748207 95.743652 
L 86.122477 91.670393 
L 86.496746 96.420299 
L 86.871016 96.331586 
L 87.245285 95.170655 
L 87.619555 95.918149 
L 88.368094 95.997431 
L 88.742363 96.707808 
L 89.116633 91.358834 
L 89.490902 95.819297 
L 90.239441 95.756508 
L 90.613711 95.3903 
L 90.98798 95.594472 
L 91.36225 96.713913 
L 91.73652 94.95316 
L 92.110789 96.906384 
L 92.485059 97.478026 
L 92.859328 96.554801 
L 93.233598 93.374546 
L 93.607867 92.59862 
L 93.982137 96.629513 
L 94.356406 96.85084 
L 94.730676 97.376186 
L 95.104945 98.25217 
L 95.479215 98.040907 
L 95.853484 91.826864 
L 96.227754 99.654058 
L 96.602023 96.510639 
L 97.350562 97.797429 
L 97.724832 98.039761 
L 98.099102 100.745635 
L 98.847641 90.139625 
L 99.22191 97.020651 
L 99.59618 96.070825 
L 99.970449 87.387684 
L 100.344719 90.808626 
L 100.718988 96.944663 
L 101.093258 94.859452 
L 101.467527 95.566163 
L 101.841797 96.693822 
L 102.216066 96.443293 
L 102.590336 95.614799 
L 102.964605 96.284677 
L 103.338875 96.31364 
L 103.713145 97.38623 
L 104.087414 98.012742 
L 104.461684 93.234388 
L 104.835953 97.308666 
L 105.210223 88.378164 
L 105.584492 94.306993 
L 105.958762 96.465498 
L 106.333031 95.238753 
L 106.707301 92.493986 
L 107.08157 95.634303 
L 107.45584 93.897183 
L 107.830109 98.189243 
L 108.204379 94.351278 
L 108.578648 95.232271 
L 108.952918 95.57433 
L 109.327187 96.283198 
L 109.701457 94.067448 
L 110.449996 97.244004 
L 111.198535 93.957738 
L 111.572805 95.169287 
L 112.321344 95.374479 
L 112.695613 98.800569 
L 113.069883 93.992471 
L 113.444152 97.878338 
L 113.818422 96.077135 
L 114.192691 97.754473 
L 114.566961 87.929869 
L 114.94123 97.714574 
L 115.3155 95.683419 
L 115.68977 100.400776 
L 116.064039 88.545892 
L 116.438309 95.238945 
L 116.812578 95.395197 
L 117.186848 96.04226 
L 117.561117 92.236657 
L 117.935387 98.012513 
L 118.309656 94.550099 
L 118.683926 96.498096 
L 119.058195 95.442382 
L 119.432465 98.880576 
L 119.806734 95.383525 
L 120.181004 89.879013 
L 120.555273 96.437895 
L 120.929543 94.32902 
L 121.303812 97.219314 
L 122.426621 93.194031 
L 123.17516 96.976011 
L 123.54943 94.747333 
L 123.923699 94.639224 
L 124.297969 96.129631 
L 124.672238 96.598468 
L 125.046508 93.71823 
L 125.420777 97.585048 
L 125.795047 94.324714 
L 126.169316 92.996569 
L 126.543586 96.134893 
L 126.917855 91.264859 
L 127.292125 98.451888 
L 127.666395 97.527881 
L 128.414934 94.235006 
L 128.789203 93.903886 
L 129.163473 98.71983 
L 129.537742 93.686299 
L 129.912012 98.492679 
L 130.286281 94.64742 
L 130.660551 94.385269 
L 131.03482 92.497974 
L 131.40909 93.936077 
L 131.783359 93.464423 
L 132.157629 95.683715 
L 132.531898 96.006614 
L 132.906168 97.088298 
L 133.280438 95.043756 
L 133.654707 97.706557 
L 134.028977 93.791972 
L 134.403246 95.441471 
L 134.777516 97.952902 
L 135.526055 93.899732 
L 135.900324 94.849496 
L 136.274594 96.815385 
L 136.648863 96.199386 
L 137.023133 95.208363 
L 137.397402 94.888401 
L 137.771672 97.643008 
L 138.145941 94.791997 
L 138.520211 93.644911 
L 138.89448 93.531268 
L 139.26875 89.784714 
L 139.64302 94.891722 
L 140.017289 92.699059 
L 140.391559 96.393999 
L 140.765828 98.742001 
L 141.140098 90.916191 
L 141.514367 93.484861 
L 141.888637 91.32395 
L 142.262906 96.316812 
L 142.637176 97.319711 
L 143.385715 95.826197 
L 143.759984 95.606695 
L 144.134254 96.154597 
L 144.508523 94.151346 
L 144.882793 98.192203 
L 145.257062 95.834653 
L 145.631332 94.944557 
L 146.005602 94.574656 
L 146.379871 99.263914 
L 146.754141 97.51208 
L 147.12841 94.446705 
L 147.50268 92.686532 
L 147.876949 92.9025 
L 148.251219 93.527697 
L 148.625488 96.383006 
L 148.999758 94.32363 
L 149.374027 98.094351 
L 149.748297 97.061735 
L 150.122566 97.556384 
L 150.496836 96.149255 
L 150.871105 92.82803 
L 151.245375 94.968536 
L 151.619645 92.204278 
L 152.368184 97.356484 
L 152.742453 96.588101 
L 153.116723 96.130175 
L 153.490992 92.830046 
L 153.865262 98.261362 
L 154.239531 90.521436 
L 154.613801 91.622908 
L 154.98807 95.284991 
L 155.36234 94.610088 
L 155.736609 94.500785 
L 156.110879 93.384211 
L 156.859418 96.991067 
L 157.233687 100.858842 
L 157.607957 99.069509 
L 157.982227 90.867406 
L 158.356496 88.037287 
L 158.730766 98.559724 
L 159.105035 96.251074 
L 159.479305 99.895043 
L 160.227844 92.250125 
L 160.976383 96.657886 
L 161.350652 91.789445 
L 161.724922 94.388139 
L 162.099191 93.050121 
L 162.473461 94.263813 
L 162.84773 98.841118 
L 163.222 96.267429 
L 163.59627 96.638 
L 163.970539 94.09314 
L 164.344809 97.051803 
L 164.719078 94.273963 
L 165.093348 97.177668 
L 165.467617 95.177553 
L 165.841887 95.319924 
L 166.216156 97.819643 
L 166.590426 95.177772 
L 167.338965 98.415293 
L 167.713234 95.82262 
L 168.087504 97.441592 
L 168.461773 94.804368 
L 168.836043 98.183839 
L 169.210312 100.372992 
L 169.584582 103.789691 
L 169.958852 100.009527 
L 170.333121 87.137201 
L 171.08166 92.983628 
L 171.45593 93.471226 
L 171.830199 95.347197 
L 172.204469 98.052508 
L 172.578738 87.776972 
L 172.953008 97.836 
L 173.327277 98.247504 
L 173.701547 102.214984 
L 174.075816 102.71391 
L 174.824355 96.337172 
L 175.198625 95.086913 
L 175.572895 95.97584 
L 175.947164 94.197405 
L 176.321434 95.018477 
L 176.695703 97.686789 
L 177.069973 96.327316 
L 178.192781 93.683334 
L 178.567051 95.404338 
L 178.94132 92.588101 
L 179.31559 97.377102 
L 179.689859 91.826356 
L 180.064129 99.997341 
L 180.438398 96.226027 
L 180.812668 94.572222 
L 181.186937 96.047767 
L 181.935477 92.660275 
L 182.309746 93.939419 
L 182.684016 93.814897 
L 183.058285 93.434448 
L 183.432555 95.952783 
L 183.806824 95.183671 
L 184.181094 96.023963 
L 184.555363 98.638886 
L 184.929633 91.936732 
L 185.678172 95.746121 
L 186.052441 95.962747 
L 186.426711 93.606713 
L 186.80098 93.80922 
L 187.17525 97.376524 
L 187.54952 96.91069 
L 187.923789 95.600379 
L 188.298059 93.611036 
L 188.672328 95.944278 
L 189.046598 94.593347 
L 189.420867 95.573066 
L 189.795137 97.277911 
L 190.169406 100.069878 
L 190.543676 100.26007 
L 190.917945 102.081907 
L 191.666484 98.940363 
L 192.040754 103.582102 
L 192.789293 87.58209 
L 193.537832 94.204339 
L 193.912102 94.125835 
L 194.286371 95.015591 
L 195.03491 97.742999 
L 195.40918 94.628869 
L 195.783449 94.445319 
L 196.157719 98.03885 
L 196.531988 98.124577 
L 196.906258 96.768264 
L 197.280527 99.48716 
L 197.654797 94.797728 
L 198.029066 93.328578 
L 198.777605 96.60195 
L 199.151875 93.979681 
L 199.526145 96.281902 
L 199.900414 94.597768 
L 200.274684 94.281837 
L 200.648953 94.737535 
L 201.023223 95.737737 
L 201.397492 94.996757 
L 201.771762 100.080507 
L 202.146031 92.140857 
L 202.520301 99.489827 
L 202.89457 96.345459 
L 203.26884 96.977188 
L 203.643109 92.373182 
L 204.017379 99.22309 
L 204.391648 94.73817 
L 204.765918 98.077178 
L 205.140187 96.72525 
L 205.888727 104.660256 
L 206.262996 86.585636 
L 207.011535 100.064177 
L 207.385805 94.629376 
L 207.760074 99.360924 
L 208.134344 95.214857 
L 208.508613 100.577358 
L 208.882883 97.806491 
L 209.257152 99.782879 
L 209.631422 93.459008 
L 210.005691 97.554127 
L 210.379961 96.428087 
L 210.75423 93.908608 
L 211.1285 97.926987 
L 211.50277 92.826824 
L 211.877039 91.82362 
L 212.251309 96.058555 
L 212.625578 96.097011 
L 212.999848 91.232263 
L 213.374117 96.656823 
L 213.748387 98.235351 
L 214.122656 94.421636 
L 214.871195 97.312437 
L 215.245465 96.946768 
L 215.619734 100.190634 
L 216.368273 97.615562 
L 216.742543 94.482363 
L 217.116812 93.924493 
L 217.491082 102.968172 
L 217.865352 96.870619 
L 218.239621 96.556418 
L 218.613891 92.225532 
L 218.98816 94.425958 
L 219.36243 92.452988 
L 219.736699 98.079087 
L 220.485238 92.106983 
L 220.859508 93.213085 
L 221.233777 97.366865 
L 221.608047 93.14117 
L 221.982316 92.034131 
L 222.356586 93.979057 
L 222.730855 96.972395 
L 223.105125 91.822624 
L 223.479395 97.025793 
L 223.853664 97.184356 
L 224.227934 102.019871 
L 224.976473 91.961969 
L 225.350742 97.662968 
L 225.725012 90.149715 
L 226.099281 93.380208 
L 226.84782 96.277381 
L 227.22209 96.069287 
L 227.596359 92.30807 
L 227.970629 96.478391 
L 228.344898 94.932599 
L 228.719168 97.898549 
L 229.093437 96.918705 
L 229.467707 98.304913 
L 229.841977 100.7951 
L 230.216246 96.902885 
L 230.590516 95.02859 
L 230.964785 90.330541 
L 231.339055 96.917457 
L 231.713324 93.298684 
L 232.087594 92.110446 
L 232.461863 94.232006 
L 232.836133 98.27023 
L 233.210402 95.829033 
L 233.584672 97.036817 
L 233.958941 93.301425 
L 234.333211 96.365902 
L 235.08175 92.400436 
L 235.45602 93.807451 
L 235.830289 94.214419 
L 236.204559 96.497146 
L 236.578828 91.924299 
L 236.953098 93.467872 
L 237.327367 99.905584 
L 237.701637 95.368999 
L 238.075906 95.998745 
L 238.450176 97.113948 
L 238.824445 94.329736 
L 239.198715 98.042466 
L 239.572984 94.036633 
L 239.947254 97.078988 
L 240.695793 91.552901 
L 240.695793 91.552901 
" clip-path="url(#pc3d8a97baf)" style="fill: none; stroke: #d55e00; stroke-opacity: 0.2; stroke-width: 0.65; stroke-linecap: square"/>
   </g>
   <g id="line2d_17">
    <path d="M 61.233553 96.198555 
L 85.186803 96.125918 
L 109.140053 95.294238 
L 133.093303 95.246819 
L 157.046553 95.449547 
L 180.999803 95.975682 
L 204.953053 96.12578 
L 228.906303 95.278237 
" clip-path="url(#pc3d8a97baf)" style="fill: none; stroke: #d55e00; stroke-width: 1.65; stroke-linecap: square"/>
    <defs>
     <path id="m86c71138df" d="M 0 1.75 
C 0.464105 1.75 0.909265 1.565609 1.237437 1.237437 
C 1.565609 0.909265 1.75 0.464105 1.75 0 
C 1.75 -0.464105 1.565609 -0.909265 1.237437 -1.237437 
C 0.909265 -1.565609 0.464105 -1.75 0 -1.75 
C -0.464105 -1.75 -0.909265 -1.565609 -1.237437 -1.237437 
C -1.565609 -0.909265 -1.75 -0.464105 -1.75 0 
C -1.75 0.464105 -1.565609 0.909265 -1.237437 1.237437 
C -0.909265 1.565609 -0.464105 1.75 0 1.75 
z
" style="stroke: #d55e00"/>
    </defs>
    <g clip-path="url(#pc3d8a97baf)">
     <use xlink:href="#m86c71138df" x="61.233553" y="96.198555" style="fill: #d55e00; stroke: #d55e00"/>
     <use xlink:href="#m86c71138df" x="85.186803" y="96.125918" style="fill: #d55e00; stroke: #d55e00"/>
     <use xlink:href="#m86c71138df" x="109.140053" y="95.294238" style="fill: #d55e00; stroke: #d55e00"/>
     <use xlink:href="#m86c71138df" x="133.093303" y="95.246819" style="fill: #d55e00; stroke: #d55e00"/>
     <use xlink:href="#m86c71138df" x="157.046553" y="95.449547" style="fill: #d55e00; stroke: #d55e00"/>
     <use xlink:href="#m86c71138df" x="180.999803" y="95.975682" style="fill: #d55e00; stroke: #d55e00"/>
     <use xlink:href="#m86c71138df" x="204.953053" y="96.12578" style="fill: #d55e00; stroke: #d55e00"/>
     <use xlink:href="#m86c71138df" x="228.906303" y="95.278237" style="fill: #d55e00; stroke: #d55e00"/>
    </g>
   </g>
   <g id="line2d_18">
    <path d="M 61.233553 96.092057 
L 85.186803 96.193984 
L 109.140053 95.713953 
L 133.093303 95.627398 
L 157.046553 95.489125 
L 180.999803 95.924482 
L 204.953053 95.455359 
L 228.906303 94.99361 
" clip-path="url(#pc3d8a97baf)" style="fill: none; stroke-dasharray: 5.55,2.4; stroke-dashoffset: 0; stroke: #d55e00; stroke-width: 1.5"/>
   </g>
   <g id="line2d_19">
    <path d="M 49.444063 95.527629 
L 52.438219 95.637612 
L 55.432375 96.209261 
L 55.806645 96.067406 
L 56.929453 96.398228 
L 57.303723 96.286502 
L 58.052262 96.562898 
L 58.426531 96.602928 
L 58.800801 97.403511 
L 59.17507 97.224709 
L 59.54934 96.908875 
L 59.923609 97.045694 
L 60.297879 97.015345 
L 60.672148 97.164352 
L 61.046418 97.448259 
L 61.420687 98.178799 
L 61.794957 97.265475 
L 62.169227 98.600731 
L 62.543496 98.861481 
L 62.917766 98.897295 
L 63.292035 97.707584 
L 63.666305 98.712148 
L 64.040574 96.664135 
L 64.414844 99.026167 
L 64.789113 99.041032 
L 65.163383 99.46147 
L 65.537652 99.236624 
L 65.911922 99.511987 
L 66.286191 99.492037 
L 66.660461 99.583919 
L 67.03473 99.32622 
L 67.409 99.31897 
L 67.78327 100.019768 
L 68.157539 99.812265 
L 68.531809 100.081367 
L 68.906078 99.950359 
L 69.280348 100.117558 
L 69.654617 99.927057 
L 70.028887 100.360131 
L 70.403156 101.875199 
L 70.777426 101.461493 
L 71.151695 99.45283 
L 71.525965 100.740668 
L 71.900234 100.75328 
L 72.274504 102.234535 
L 73.023043 100.456312 
L 73.397312 102.561943 
L 73.771582 102.022162 
L 74.145852 102.810875 
L 74.520121 101.164854 
L 74.894391 103.915717 
L 75.26866 103.390454 
L 75.64293 103.47275 
L 76.017199 102.493818 
L 76.391469 104.6997 
L 76.765738 100.553973 
L 77.140008 103.497454 
L 77.514277 103.733573 
L 77.888547 104.435858 
L 78.262816 100.182998 
L 78.637086 103.884477 
L 79.011355 105.851746 
L 79.385625 101.189496 
L 79.759895 105.02958 
L 80.134164 103.715315 
L 80.508434 100.944556 
L 80.882703 106.381647 
L 81.256973 107.32798 
L 81.631242 102.294125 
L 82.005512 104.377535 
L 82.379781 103.883618 
L 83.12832 107.168578 
L 83.50259 104.11262 
L 83.876859 103.664758 
L 84.251129 105.481597 
L 84.625398 104.748675 
L 84.999668 104.600384 
L 85.373937 102.652121 
L 85.748207 105.167755 
L 86.122477 111.660587 
L 86.496746 104.970576 
L 86.871016 107.216145 
L 87.245285 107.626083 
L 87.619555 107.695162 
L 87.993824 106.255046 
L 88.368094 110.68498 
L 88.742363 109.048101 
L 89.116633 109.738021 
L 89.490902 106.961879 
L 89.865172 107.493635 
L 90.239441 107.683036 
L 90.613711 107.474835 
L 90.98798 108.100974 
L 91.36225 107.831532 
L 91.73652 113.417392 
L 92.110789 108.210413 
L 92.485059 109.212629 
L 92.859328 107.407657 
L 93.233598 106.694293 
L 93.607867 113.119064 
L 93.982137 109.557593 
L 94.356406 110.004798 
L 94.730676 108.759436 
L 95.104945 108.468466 
L 95.479215 105.025968 
L 95.853484 108.304521 
L 96.227754 110.412149 
L 96.602023 106.460874 
L 96.976293 109.843357 
L 97.350562 116.181808 
L 97.724832 109.843104 
L 98.099102 108.903134 
L 98.473371 106.502918 
L 98.847641 111.415972 
L 99.22191 110.786008 
L 99.59618 107.911322 
L 99.970449 112.735856 
L 100.344719 115.980203 
L 100.718988 108.12545 
L 101.093258 109.963748 
L 101.467527 110.258266 
L 101.841797 115.772611 
L 102.216066 110.041445 
L 102.590336 107.885657 
L 102.964605 111.269911 
L 103.338875 107.785499 
L 103.713145 114.555923 
L 104.087414 109.506536 
L 104.461684 113.254208 
L 104.835953 112.53177 
L 105.210223 112.177616 
L 105.584492 111.504385 
L 105.958762 117.209236 
L 106.333031 111.021528 
L 106.707301 111.061124 
L 107.08157 112.203567 
L 107.45584 118.505678 
L 108.204379 113.549833 
L 108.578648 112.535792 
L 108.952918 112.912913 
L 109.327187 117.048835 
L 109.701457 109.625343 
L 110.075727 115.606156 
L 110.449996 112.019387 
L 110.824266 115.435288 
L 111.198535 110.499088 
L 111.572805 117.110298 
L 111.947074 119.096215 
L 112.321344 119.882844 
L 112.695613 113.495255 
L 113.069883 116.407776 
L 113.444152 109.695797 
L 114.192691 114.912951 
L 114.566961 116.075541 
L 114.94123 109.509173 
L 115.3155 119.611035 
L 115.68977 116.069014 
L 116.064039 116.349694 
L 116.438309 112.841507 
L 116.812578 118.191025 
L 117.186848 114.051686 
L 117.561117 113.874181 
L 117.935387 123.621905 
L 118.309656 120.250674 
L 118.683926 114.674292 
L 119.058195 115.37965 
L 119.432465 114.371953 
L 119.806734 125.756287 
L 120.181004 121.50993 
L 120.555273 109.987357 
L 120.929543 116.404743 
L 121.303812 117.658753 
L 121.678082 114.830625 
L 122.052352 118.80737 
L 122.426621 120.015162 
L 122.800891 118.807458 
L 123.17516 121.936175 
L 123.54943 120.637382 
L 123.923699 120.525841 
L 124.297969 127.102328 
L 124.672238 123.997509 
L 125.046508 114.749578 
L 125.420777 123.271368 
L 125.795047 119.447587 
L 126.169316 119.929269 
L 126.917855 131.587774 
L 127.292125 124.463414 
L 127.666395 125.761935 
L 128.040664 128.662022 
L 128.414934 119.605106 
L 128.789203 123.647576 
L 129.163473 121.094644 
L 129.537742 122.695095 
L 129.912012 121.462084 
L 130.286281 112.769203 
L 130.660551 119.449098 
L 131.03482 122.146498 
L 131.40909 119.839417 
L 131.783359 129.712246 
L 132.157629 122.32406 
L 132.531898 117.897626 
L 132.906168 116.147964 
L 133.280438 129.667091 
L 133.654707 120.201966 
L 134.028977 119.78978 
L 134.403246 120.698118 
L 134.777516 124.737505 
L 135.151785 119.078204 
L 135.526055 122.496472 
L 135.900324 116.274888 
L 136.274594 121.743217 
L 136.648863 122.793368 
L 137.023133 122.812054 
L 137.397402 119.539685 
L 137.771672 114.973293 
L 138.145941 118.719558 
L 138.520211 120.448409 
L 138.89448 123.797307 
L 139.26875 115.308964 
L 139.64302 114.338044 
L 140.391559 133.073288 
L 140.765828 122.556748 
L 141.140098 130.832435 
L 141.514367 122.557034 
L 141.888637 129.399262 
L 142.262906 118.975233 
L 142.637176 135.539745 
L 143.011445 117.641776 
L 143.385715 125.933247 
L 143.759984 127.313915 
L 144.134254 127.799877 
L 144.508523 123.291902 
L 144.882793 139.373037 
L 145.257062 123.88234 
L 145.631332 126.707104 
L 146.005602 121.629388 
L 146.379871 128.862387 
L 146.754141 141.64323 
L 147.12841 127.240641 
L 147.50268 131.990043 
L 148.251219 126.517965 
L 148.625488 135.020488 
L 148.999758 125.767501 
L 149.374027 127.611168 
L 149.748297 132.784571 
L 150.122566 121.213134 
L 150.496836 129.505755 
L 150.871105 130.019022 
L 151.619645 121.832073 
L 151.993914 130.875394 
L 152.368184 136.215099 
L 152.742453 139.566288 
L 153.116723 129.803386 
L 153.490992 138.359613 
L 153.865262 117.575666 
L 154.239531 133.8426 
L 154.613801 129.48022 
L 154.98807 123.342078 
L 155.36234 137.060854 
L 155.736609 124.084489 
L 156.110879 129.013134 
L 156.485148 125.539754 
L 156.859418 143.024758 
L 157.233687 131.55514 
L 157.607957 127.205429 
L 157.982227 124.833162 
L 158.356496 126.580645 
L 158.730766 131.649215 
L 159.105035 124.206641 
L 159.479305 131.138249 
L 159.853574 126.905525 
L 160.227844 131.003314 
L 160.602113 140.182105 
L 160.976383 129.693225 
L 161.350652 124.172442 
L 161.724922 131.331451 
L 162.099191 131.230987 
L 162.473461 127.089586 
L 162.84773 128.906979 
L 163.222 128.354932 
L 163.59627 140.657854 
L 163.970539 131.891892 
L 164.344809 128.008889 
L 164.719078 139.532846 
L 165.093348 133.054596 
L 165.467617 144.641693 
L 165.841887 137.822577 
L 166.964695 130.106087 
L 167.338965 129.419181 
L 167.713234 142.717974 
L 168.087504 129.611076 
L 168.461773 130.957138 
L 168.836043 125.945209 
L 169.210312 127.611118 
L 169.584582 137.910641 
L 169.958852 143.255269 
L 170.333121 127.721571 
L 170.707391 132.009231 
L 171.08166 142.644811 
L 171.45593 132.316059 
L 171.830199 141.120132 
L 172.204469 131.622174 
L 172.578738 137.42134 
L 172.953008 141.447334 
L 173.327277 126.420073 
L 173.701547 141.659732 
L 174.075816 140.675731 
L 174.450086 133.134589 
L 174.824355 134.326009 
L 175.198625 147.010238 
L 175.572895 133.937546 
L 175.947164 129.730698 
L 176.321434 143.115331 
L 176.695703 129.592758 
L 177.069973 133.65066 
L 177.444242 139.124791 
L 177.818512 139.10447 
L 178.192781 148.216037 
L 178.567051 150.037134 
L 178.94132 125.371394 
L 179.689859 136.53287 
L 180.064129 136.976563 
L 180.438398 131.402163 
L 180.812668 145.409938 
L 181.186937 141.041905 
L 181.561207 131.826304 
L 181.935477 133.871754 
L 182.309746 140.566604 
L 182.684016 142.853038 
L 183.058285 134.434448 
L 183.432555 135.487085 
L 183.806824 141.97468 
L 184.181094 141.722872 
L 184.555363 139.464527 
L 184.929633 158.048164 
L 185.303902 150.181527 
L 185.678172 133.874607 
L 186.052441 137.26452 
L 186.426711 144.775697 
L 186.80098 118.766229 
L 187.17525 142.028669 
L 187.54952 138.306002 
L 187.923789 131.955129 
L 188.672328 138.122297 
L 189.046598 135.980808 
L 189.420867 153.431024 
L 189.795137 156.422533 
L 190.169406 133.525966 
L 190.543676 142.205512 
L 190.917945 144.751641 
L 191.292215 143.783601 
L 191.666484 148.037719 
L 192.040754 144.988953 
L 192.415023 129.805232 
L 192.789293 141.807778 
L 193.163562 139.567332 
L 193.537832 149.744415 
L 193.912102 150.501167 
L 194.286371 148.343928 
L 194.660641 137.107285 
L 195.03491 153.886512 
L 195.40918 130.274006 
L 195.783449 131.863332 
L 196.157719 162.26692 
L 196.531988 141.504761 
L 196.906258 135.759395 
L 197.280527 136.546911 
L 197.654797 137.894449 
L 198.029066 148.92816 
L 198.403336 151.391422 
L 198.777605 146.735578 
L 199.151875 134.932442 
L 199.526145 149.683868 
L 199.900414 150.166874 
L 200.274684 141.639683 
L 200.648953 148.498502 
L 201.023223 142.030612 
L 201.397492 158.015261 
L 202.146031 135.355093 
L 202.89457 150.1626 
L 203.26884 146.247637 
L 203.643109 159.797504 
L 204.017379 145.22669 
L 204.391648 135.206378 
L 204.765918 149.121838 
L 205.140187 148.344339 
L 205.888727 147.589868 
L 206.262996 145.96866 
L 206.637266 145.159547 
L 207.011535 153.895402 
L 207.385805 166.064604 
L 207.760074 143.560599 
L 208.134344 150.603028 
L 208.508613 146.426256 
L 208.882883 156.290821 
L 209.257152 155.288033 
L 209.631422 141.119597 
L 210.005691 162.121535 
L 210.379961 165.247453 
L 210.75423 150.139608 
L 211.1285 140.163795 
L 211.50277 148.570769 
L 211.877039 160.776169 
L 212.251309 167.845546 
L 212.625578 148.849482 
L 212.999848 159.056472 
L 213.374117 159.805553 
L 213.748387 132.005346 
L 214.122656 131.629201 
L 214.496926 146.1814 
L 215.245465 159.599886 
L 215.619734 139.866087 
L 215.994004 153.782966 
L 216.368273 132.820925 
L 216.742543 154.800271 
L 217.116812 146.833387 
L 217.491082 145.149443 
L 217.865352 144.680085 
L 218.239621 134.039666 
L 218.98816 175.116945 
L 219.36243 136.682274 
L 219.736699 135.440923 
L 220.110969 138.933088 
L 220.485238 157.755527 
L 220.859508 149.388627 
L 221.233777 147.69767 
L 221.608047 142.568186 
L 221.982316 160.533301 
L 222.356586 157.473411 
L 222.730855 136.768012 
L 223.105125 154.005127 
L 223.479395 149.443096 
L 223.853664 149.508505 
L 224.227934 144.676778 
L 224.602203 156.482447 
L 224.976473 145.064429 
L 225.725012 157.637336 
L 226.099281 150.221825 
L 226.473551 160.2989 
L 226.84782 157.311775 
L 227.22209 143.574654 
L 227.596359 146.640539 
L 227.970629 167.737366 
L 228.344898 153.431851 
L 228.719168 152.097424 
L 229.093437 140.733735 
L 229.467707 148.38567 
L 229.841977 149.161486 
L 230.216246 142.278254 
L 230.590516 146.962096 
L 230.964785 171.651055 
L 231.339055 152.486763 
L 231.713324 171.038874 
L 232.087594 175.978364 
L 232.836133 143.632461 
L 233.210402 147.107151 
L 233.958941 162.126452 
L 234.333211 159.999623 
L 234.70748 143.846774 
L 235.08175 148.109235 
L 235.45602 172.572453 
L 235.830289 153.905959 
L 236.204559 157.095831 
L 236.578828 143.332449 
L 236.953098 158.078416 
L 237.327367 168.336257 
L 237.701637 155.731877 
L 238.075906 163.762847 
L 238.450176 155.229077 
L 238.824445 158.641555 
L 239.198715 160.695301 
L 239.572984 156.179159 
L 239.947254 156.441969 
L 240.321523 168.6284 
L 240.695793 148.541716 
L 240.695793 148.541716 
" clip-path="url(#pc3d8a97baf)" style="fill: none; stroke: #009e73; stroke-opacity: 0.2; stroke-width: 0.65; stroke-linecap: square"/>
   </g>
   <g id="line2d_20">
    <path d="M 61.233553 97.912146 
L 85.186803 105.970607 
L 109.140053 113.770856 
L 133.093303 122.3533 
L 157.046553 130.512075 
L 180.999803 138.399807 
L 204.953053 147.695016 
L 228.906303 153.082273 
" clip-path="url(#pc3d8a97baf)" style="fill: none; stroke: #009e73; stroke-width: 1.65; stroke-linecap: square"/>
    <defs>
     <path id="m46f68a1c36" d="M 0 1.75 
C 0.464105 1.75 0.909265 1.565609 1.237437 1.237437 
C 1.565609 0.909265 1.75 0.464105 1.75 0 
C 1.75 -0.464105 1.565609 -0.909265 1.237437 -1.237437 
C 0.909265 -1.565609 0.464105 -1.75 0 -1.75 
C -0.464105 -1.75 -0.909265 -1.565609 -1.237437 -1.237437 
C -1.565609 -0.909265 -1.75 -0.464105 -1.75 0 
C -1.75 0.464105 -1.565609 0.909265 -1.237437 1.237437 
C -0.909265 1.565609 -0.464105 1.75 0 1.75 
z
" style="stroke: #009e73"/>
    </defs>
    <g clip-path="url(#pc3d8a97baf)">
     <use xlink:href="#m46f68a1c36" x="61.233553" y="97.912146" style="fill: #009e73; stroke: #009e73"/>
     <use xlink:href="#m46f68a1c36" x="85.186803" y="105.970607" style="fill: #009e73; stroke: #009e73"/>
     <use xlink:href="#m46f68a1c36" x="109.140053" y="113.770856" style="fill: #009e73; stroke: #009e73"/>
     <use xlink:href="#m46f68a1c36" x="133.093303" y="122.3533" style="fill: #009e73; stroke: #009e73"/>
     <use xlink:href="#m46f68a1c36" x="157.046553" y="130.512075" style="fill: #009e73; stroke: #009e73"/>
     <use xlink:href="#m46f68a1c36" x="180.999803" y="138.399807" style="fill: #009e73; stroke: #009e73"/>
     <use xlink:href="#m46f68a1c36" x="204.953053" y="147.695016" style="fill: #009e73; stroke: #009e73"/>
     <use xlink:href="#m46f68a1c36" x="228.906303" y="153.082273" style="fill: #009e73; stroke: #009e73"/>
    </g>
   </g>
   <g id="line2d_21">
    <path d="M 61.233553 97.911368 
L 85.186803 105.964095 
L 109.140053 113.746585 
L 133.093303 122.312105 
L 157.046553 130.447746 
L 180.999803 138.304588 
L 204.953053 147.547853 
L 228.906303 152.876773 
" clip-path="url(#pc3d8a97baf)" style="fill: none; stroke-dasharray: 5.55,2.4; stroke-dashoffset: 0; stroke: #009e73; stroke-width: 1.5"/>
   </g>
   <g id="line2d_22">
    <path d="M 49.444063 95.527629 
L 241.070062 95.527629 
" clip-path="url(#pc3d8a97baf)" style="fill: none; stroke: #777777; stroke-width: 0.7; stroke-linecap: square"/>
   </g>
   <g id="patch_4">
    <path d="M 49.444063 180.448 
L 49.444063 82.116 
" style="fill: none; stroke: #000000; stroke-width: 0.8; stroke-linejoin: miter; stroke-linecap: square"/>
   </g>
   <g id="patch_5">
    <path d="M 49.444063 180.448 
L 241.070062 180.448 
" style="fill: none; stroke: #000000; stroke-width: 0.8; stroke-linejoin: miter; stroke-linecap: square"/>
   </g>
   <g id="text_12">
    <text style="font-size: 10px; font-family: 'DejaVu Sans'; text-anchor: middle" x="145.257062" y="66.125437" transform="rotate(-0 145.257062 66.125437)">(a) Measured and reconstructed</text>
   </g>
   <g id="legend_1">
    <g id="line2d_23">
     <path d="M 57.544063 154.115969 
L 65.644063 154.115969 
L 73.744062 154.115969 
" style="fill: none; stroke: #222222; stroke-width: 1.5; stroke-linecap: square"/>
    </g>
    <g id="text_13">
     <!-- Measured $\Delta L$ -->
     <g transform="translate(80.944063 157.265969)">
      <text>
       <tspan x="0" y="-0.15625" style="font-size: 9px; font-family: 'DejaVu Sans'">M</tspan>
       <tspan x="7.765137" y="-0.15625" style="font-size: 9px; font-family: 'DejaVu Sans'">e</tspan>
       <tspan x="13.302246" y="-0.15625" style="font-size: 9px; font-family: 'DejaVu Sans'">a</tspan>
       <tspan x="18.817383" y="-0.15625" style="font-size: 9px; font-family: 'DejaVu Sans'">s</tspan>
       <tspan x="23.506348" y="-0.15625" style="font-size: 9px; font-family: 'DejaVu Sans'">u</tspan>
       <tspan x="29.210449" y="-0.15625" style="font-size: 9px; font-family: 'DejaVu Sans'">r</tspan>
       <tspan x="32.910645" y="-0.15625" style="font-size: 9px; font-family: 'DejaVu Sans'">e</tspan>
       <tspan x="38.447754" y="-0.15625" style="font-size: 9px; font-family: 'DejaVu Sans'">d</tspan>
       <tspan x="44.160645" y="-0.15625" style="font-size: 9px; font-family: 'DejaVu Sans'"> </tspan>
       <tspan x="47.021484" y="-0.15625" style="font-size: 9px; font-family: 'DejaVu Sans'">Δ</tspan>
       <tspan x="53.178223" y="-0.15625" style="font-style: oblique; font-size: 9px; font-family: 'DejaVu Sans'">L</tspan>
      </text>
     </g>
    </g>
    <g id="line2d_24">
     <path d="M 57.544063 167.326281 
L 65.644063 167.326281 
L 73.744062 167.326281 
" style="fill: none; stroke-dasharray: 5.55,2.4; stroke-dashoffset: 0; stroke: #222222; stroke-width: 1.5"/>
    </g>
    <g id="text_14">
     <!-- $\Delta A+\Delta Q_2$ -->
     <g transform="translate(80.944063 170.476281)">
      <text>
       <tspan x="0" y="-0.3125" style="font-size: 9px; font-family: 'DejaVu Sans'">Δ</tspan>
       <tspan x="14.066895" y="-0.3125" style="font-size: 9px; font-family: 'DejaVu Sans'">+</tspan>
       <tspan x="23.361328" y="-0.3125" style="font-size: 9px; font-family: 'DejaVu Sans'">Δ</tspan>
       <tspan x="6.156738" y="-0.3125" style="font-style: oblique; font-size: 9px; font-family: 'DejaVu Sans'">A</tspan>
       <tspan x="29.518066" y="-0.3125" style="font-style: oblique; font-size: 9px; font-family: 'DejaVu Sans'">Q</tspan>
       <tspan x="36.602051" y="1.164062" style="font-size: 6.3px; font-family: 'DejaVu Sans'">2</tspan>
      </text>
     </g>
    </g>
   </g>
  </g>
  <g id="axes_2">
   <g id="patch_6">
    <path d="M 284.866062 180.448 
L 476.492062 180.448 
L 476.492062 82.116 
L 284.866062 82.116 
z
" style="fill: #ffffff"/>
   </g>
   <g id="patch_7">
    <path d="M 284.866062 180.448 
L 296.842687 180.448 
L 296.842687 82.116 
L 284.866062 82.116 
z
" clip-path="url(#p14240cc0c1)" style="fill: #777777; opacity: 0.09"/>
   </g>
   <g id="matplotlib.axis_3">
    <g id="xtick_5">
     <g id="line2d_25">
      <g>
       <use xlink:href="#m062ee4a1ff" x="284.866062" y="180.448" style="stroke: #000000; stroke-width: 0.8"/>
      </g>
     </g>
     <g id="text_15">
      <text style="font-size: 9.2px; font-family: 'DejaVu Sans'; text-anchor: middle" x="284.866062" y="194.438562" transform="rotate(-0 284.866062 194.438562)">0</text>
     </g>
    </g>
    <g id="xtick_6">
     <g id="line2d_26">
      <g>
       <use xlink:href="#m062ee4a1ff" x="341.006492" y="180.448" style="stroke: #000000; stroke-width: 0.8"/>
      </g>
     </g>
     <g id="text_16">
      <text style="font-size: 9.2px; font-family: 'DejaVu Sans'; text-anchor: middle" x="341.006492" y="194.438562" transform="rotate(-0 341.006492 194.438562)">150</text>
     </g>
    </g>
    <g id="xtick_7">
     <g id="line2d_27">
      <g>
       <use xlink:href="#m062ee4a1ff" x="397.146922" y="180.448" style="stroke: #000000; stroke-width: 0.8"/>
      </g>
     </g>
     <g id="text_17">
      <text style="font-size: 9.2px; font-family: 'DejaVu Sans'; text-anchor: middle" x="397.146922" y="194.438562" transform="rotate(-0 397.146922 194.438562)">300</text>
     </g>
    </g>
    <g id="xtick_8">
     <g id="line2d_28">
      <g>
       <use xlink:href="#m062ee4a1ff" x="453.287352" y="180.448" style="stroke: #000000; stroke-width: 0.8"/>
      </g>
     </g>
     <g id="text_18">
      <text style="font-size: 9.2px; font-family: 'DejaVu Sans'; text-anchor: middle" x="453.287352" y="194.438562" transform="rotate(-0 453.287352 194.438562)">450</text>
     </g>
    </g>
    <g id="text_19">
     <text style="font-size: 9.2px; font-family: 'DejaVu Sans'; text-anchor: middle" x="380.679062" y="207.342437" transform="rotate(-0 380.679062 207.342437)">Continuation updates</text>
    </g>
   </g>
   <g id="matplotlib.axis_4">
    <g id="ytick_5">
     <g id="line2d_29">
      <path d="M 284.866062 165.419144 
L 476.492062 165.419144 
" clip-path="url(#p14240cc0c1)" style="fill: none; stroke: #b0b0b0; stroke-opacity: 0.15; stroke-width: 0.6; stroke-linecap: square"/>
     </g>
     <g id="line2d_30">
      <g>
       <use xlink:href="#md8194fa7b0" x="284.866062" y="165.419144" style="stroke: #000000; stroke-width: 0.8"/>
      </g>
     </g>
     <g id="text_20">
      <text style="font-size: 9.2px; font-family: 'DejaVu Sans'; text-anchor: end" x="277.866062" y="168.914426" transform="rotate(-0 277.866062 168.914426)">−2</text>
     </g>
    </g>
    <g id="ytick_6">
     <g id="line2d_31">
      <path d="M 284.866062 141.784069 
L 476.492062 141.784069 
" clip-path="url(#p14240cc0c1)" style="fill: none; stroke: #b0b0b0; stroke-opacity: 0.15; stroke-width: 0.6; stroke-linecap: square"/>
     </g>
     <g id="line2d_32">
      <g>
       <use xlink:href="#md8194fa7b0" x="284.866062" y="141.784069" style="stroke: #000000; stroke-width: 0.8"/>
      </g>
     </g>
     <g id="text_21">
      <text style="font-size: 9.2px; font-family: 'DejaVu Sans'; text-anchor: end" x="277.866062" y="145.279351" transform="rotate(-0 277.866062 145.279351)">−1</text>
     </g>
    </g>
    <g id="ytick_7">
     <g id="line2d_33">
      <path d="M 284.866062 118.148995 
L 476.492062 118.148995 
" clip-path="url(#p14240cc0c1)" style="fill: none; stroke: #b0b0b0; stroke-opacity: 0.15; stroke-width: 0.6; stroke-linecap: square"/>
     </g>
     <g id="line2d_34">
      <g>
       <use xlink:href="#md8194fa7b0" x="284.866062" y="118.148995" style="stroke: #000000; stroke-width: 0.8"/>
      </g>
     </g>
     <g id="text_22">
      <text style="font-size: 9.2px; font-family: 'DejaVu Sans'; text-anchor: end" x="277.866062" y="121.644276" transform="rotate(-0 277.866062 121.644276)">0</text>
     </g>
    </g>
    <g id="ytick_8">
     <g id="line2d_35">
      <path d="M 284.866062 94.51392 
L 476.492062 94.51392 
" clip-path="url(#p14240cc0c1)" style="fill: none; stroke: #b0b0b0; stroke-opacity: 0.15; stroke-width: 0.6; stroke-linecap: square"/>
     </g>
     <g id="line2d_36">
      <g>
       <use xlink:href="#md8194fa7b0" x="284.866062" y="94.51392" style="stroke: #000000; stroke-width: 0.8"/>
      </g>
     </g>
     <g id="text_23">
      <text style="font-size: 9.2px; font-family: 'DejaVu Sans'; text-anchor: end" x="277.866062" y="98.009201" transform="rotate(-0 277.866062 98.009201)">1</text>
     </g>
    </g>
    <g id="text_24">
     <text style="font-size: 9.2px; font-family: 'DejaVu Sans'; text-anchor: middle" x="258.389937" y="131.282" transform="rotate(-90 258.389937 131.282)">Difference (nats)</text>
    </g>
    <g id="text_25">
     <text style="font-size: 9.2px; font-family: 'DejaVu Sans'; text-anchor: start" x="284.866062" y="79.116" transform="rotate(-0 284.866062 79.116)">1e−4</text>
    </g>
   </g>
   <g id="line2d_37">
    <path d="M 284.866062 118.148995 
L 317.427512 118.140714 
L 317.801781 117.935054 
L 318.176051 118.10161 
L 321.170207 118.164942 
L 322.293016 118.146927 
L 323.415824 118.213049 
L 324.538633 118.058611 
L 324.912902 118.16546 
L 326.035711 118.130026 
L 327.15852 118.164025 
L 328.281328 118.101748 
L 329.404137 118.196188 
L 330.526945 118.164028 
L 330.901215 117.86344 
L 331.649754 118.239253 
L 332.024023 118.062883 
L 332.772562 118.240167 
L 333.146832 118.087485 
L 333.521102 118.15854 
L 333.895371 117.86424 
L 334.269641 118.159994 
L 334.64391 118.236515 
L 335.01818 118.150301 
L 335.392449 117.949355 
L 335.766719 117.990096 
L 336.140988 118.183941 
L 338.012336 118.19223 
L 338.386605 118.080263 
L 339.135145 118.215533 
L 341.380762 118.133356 
L 342.129301 118.303496 
L 342.87784 118.067785 
L 343.252109 118.322474 
L 343.626379 118.00894 
L 344.000648 117.939175 
L 344.374918 118.286835 
L 344.749187 118.246503 
L 345.123457 118.340642 
L 345.871996 118.054873 
L 346.246266 117.972013 
L 346.620535 118.38589 
L 347.369074 117.952299 
L 347.743344 118.059999 
L 349.240422 118.071839 
L 349.614691 118.130748 
L 349.988961 117.811401 
L 350.36323 118.104192 
L 350.7375 118.199665 
L 351.11177 118.135383 
L 352.234578 118.39816 
L 352.983117 118.75679 
L 353.357387 118.044186 
L 353.731656 117.830324 
L 354.105926 117.761808 
L 354.480195 118.133389 
L 354.854465 118.093253 
L 355.228734 118.495021 
L 355.603004 118.268007 
L 355.977273 118.747615 
L 356.725812 117.82372 
L 357.100082 118.15911 
L 357.474352 117.860996 
L 357.848621 118.345908 
L 358.222891 118.613489 
L 358.59716 118.274555 
L 358.97143 118.384005 
L 359.345699 117.968247 
L 360.094238 118.153009 
L 360.468508 118.435495 
L 360.842777 118.041037 
L 361.217047 117.919929 
L 361.965586 118.160396 
L 362.339855 118.07126 
L 362.714125 118.293493 
L 363.088395 118.163576 
L 363.462664 118.233126 
L 363.836934 118.433581 
L 364.211203 117.568722 
L 364.585473 118.167521 
L 365.334012 118.667354 
L 365.708281 117.942301 
L 366.082551 119.130668 
L 366.45682 118.294535 
L 366.83109 118.179494 
L 367.205359 118.284696 
L 367.579629 118.210057 
L 367.953898 118.345819 
L 368.328168 118.186689 
L 368.702437 118.153489 
L 369.450977 118.415288 
L 369.825246 117.80602 
L 370.199516 118.644511 
L 371.322324 117.725634 
L 371.696594 118.214147 
L 372.070863 118.284298 
L 372.445133 117.929108 
L 372.819402 118.261207 
L 373.193672 118.337085 
L 373.567941 118.298576 
L 373.942211 117.913182 
L 374.69075 117.762657 
L 375.439289 118.252639 
L 375.813559 117.461466 
L 376.187828 117.405638 
L 376.562098 118.13101 
L 376.936367 118.450619 
L 377.310637 118.206628 
L 378.059176 118.095756 
L 378.433445 117.894518 
L 378.807715 118.176868 
L 379.556254 118.049542 
L 380.304793 117.998493 
L 380.679062 118.522227 
L 381.053332 118.169071 
L 381.427602 118.193975 
L 382.176141 117.833585 
L 382.55041 118.328306 
L 382.92468 118.010287 
L 383.298949 118.181707 
L 383.673219 118.028388 
L 384.421758 118.146019 
L 384.796027 118.256012 
L 385.170297 118.220375 
L 385.544566 118.063227 
L 385.918836 118.043905 
L 386.293105 118.297371 
L 387.790184 118.070356 
L 388.538723 118.250829 
L 388.912992 118.165123 
L 389.287262 118.35084 
L 390.035801 117.670368 
L 390.41007 117.979754 
L 390.78434 117.97946 
L 391.158609 117.862422 
L 391.532879 118.143897 
L 391.907148 117.761777 
L 392.281418 117.592371 
L 392.655687 118.358618 
L 393.029957 118.720831 
L 393.404227 118.583271 
L 393.778496 118.049878 
L 394.152766 118.130709 
L 394.527035 117.752921 
L 395.275574 118.70715 
L 395.649844 118.306171 
L 396.024113 118.588189 
L 396.398383 117.864207 
L 396.772652 117.840466 
L 397.146922 118.061897 
L 398.26973 118.077513 
L 398.644 118.387717 
L 399.01827 118.284887 
L 399.392539 117.974385 
L 399.766809 118.473151 
L 400.141078 118.09964 
L 400.515348 118.352165 
L 400.889617 118.256399 
L 401.263887 117.878083 
L 402.760965 118.037562 
L 403.135234 118.273754 
L 403.883773 117.923933 
L 404.258043 118.402729 
L 404.632312 118.175644 
L 405.006582 118.532802 
L 405.380852 118.040442 
L 405.755121 118.17919 
L 406.129391 117.807898 
L 406.50366 118.428336 
L 406.87793 118.256322 
L 407.252199 118.278772 
L 407.626469 118.165074 
L 408.000738 117.895162 
L 408.375008 118.154882 
L 408.749277 118.225377 
L 409.123547 118.078977 
L 409.497816 118.311977 
L 409.872086 118.801078 
L 410.246355 118.025092 
L 410.620625 118.367459 
L 411.369164 118.126121 
L 412.117703 117.97543 
L 412.866242 118.137264 
L 413.614781 117.67468 
L 413.989051 117.617733 
L 414.36332 118.24646 
L 414.73759 118.61404 
L 415.111859 117.856489 
L 415.486129 118.687724 
L 415.860398 118.279487 
L 416.234668 117.596111 
L 416.608937 118.272789 
L 416.983207 117.960569 
L 417.357477 118.413765 
L 417.731746 118.084944 
L 418.106016 118.22801 
L 418.480285 118.045807 
L 418.854555 118.14015 
L 419.228824 118.076036 
L 419.603094 118.233043 
L 419.977363 118.106303 
L 421.474441 118.222238 
L 421.848711 118.470923 
L 422.59725 118.244942 
L 422.97152 118.237582 
L 423.345789 118.508425 
L 423.720059 117.98931 
L 424.094328 118.126982 
L 424.468598 118.146103 
L 425.217137 117.958327 
L 425.591406 118.928453 
L 425.965676 117.869004 
L 426.339945 117.977413 
L 426.714215 118.300313 
L 427.088484 118.06955 
L 427.462754 118.209728 
L 427.837023 118.012688 
L 428.211293 118.153226 
L 428.585562 118.580626 
L 428.959832 118.39992 
L 429.334102 117.119452 
L 429.708371 118.341529 
L 430.082641 118.048869 
L 430.83118 118.221523 
L 431.205449 118.836623 
L 431.579719 118.415274 
L 432.328258 117.999165 
L 432.702527 118.558328 
L 433.076797 118.23117 
L 433.451066 117.736148 
L 433.825336 117.869236 
L 434.199605 118.193402 
L 434.573875 117.669857 
L 434.948145 118.265899 
L 435.322414 118.532191 
L 435.696684 118.28588 
L 436.445223 118.400801 
L 436.819492 118.37722 
L 437.193762 118.576532 
L 437.568031 118.081617 
L 437.942301 117.789401 
L 438.31657 117.989657 
L 438.69084 118.357294 
L 439.065109 117.913979 
L 439.439379 118.210216 
L 440.187918 118.289574 
L 440.562187 118.025012 
L 440.936457 118.087823 
L 441.310727 118.409658 
L 441.684996 118.221341 
L 442.059266 117.87134 
L 442.433535 118.355603 
L 443.182074 117.562968 
L 443.556344 118.023287 
L 443.930613 118.194867 
L 444.304883 117.915083 
L 445.801961 118.185152 
L 446.17623 118.085993 
L 446.5505 117.744168 
L 446.92477 118.171602 
L 447.299039 117.531724 
L 447.673309 118.063524 
L 448.047578 118.132238 
L 448.421848 118.400844 
L 448.796117 117.922897 
L 449.170387 118.442629 
L 449.918926 118.283735 
L 450.293195 118.044481 
L 450.667465 117.946911 
L 451.041734 118.313902 
L 451.416004 118.465155 
L 452.164543 117.846674 
L 452.538812 118.212431 
L 453.287352 118.123457 
L 453.661621 116.372903 
L 454.035891 117.61035 
L 454.41016 117.995163 
L 455.158699 118.028802 
L 455.532969 118.73163 
L 455.907238 118.025036 
L 456.281508 117.977663 
L 456.655777 118.47151 
L 457.030047 118.437346 
L 457.404316 118.046681 
L 457.778586 118.291005 
L 458.152855 118.103528 
L 458.527125 118.074475 
L 458.901395 118.514329 
L 459.275664 119.740443 
L 459.649934 117.567657 
L 460.024203 118.357613 
L 460.398473 117.365024 
L 460.772742 117.906166 
L 461.147012 118.174629 
L 461.521281 118.167174 
L 461.895551 117.892796 
L 462.26982 118.418593 
L 462.64409 118.006522 
L 463.392629 118.135674 
L 463.766898 118.123545 
L 464.141168 117.60184 
L 464.515437 118.306338 
L 464.889707 118.01736 
L 465.263977 118.397993 
L 465.638246 118.030695 
L 466.012516 117.913062 
L 466.761055 118.446559 
L 467.135324 117.747004 
L 467.883863 118.3948 
L 468.632402 118.24896 
L 469.006672 117.785509 
L 469.380941 118.063805 
L 470.12948 117.994741 
L 471.252289 118.027876 
L 471.626559 118.164143 
L 472.000828 117.813093 
L 472.375098 118.483329 
L 472.749367 118.746995 
L 473.123637 118.12369 
L 473.497906 117.952161 
L 473.872176 118.233008 
L 474.246445 118.045021 
L 474.620715 118.377895 
L 474.994984 117.905485 
L 475.369254 118.589188 
L 475.743523 116.847996 
L 476.117793 116.835958 
L 476.117793 116.835958 
" clip-path="url(#p14240cc0c1)" style="fill: none; stroke: #0072b2; stroke-opacity: 0.2; stroke-width: 0.65; stroke-linecap: square"/>
   </g>
   <g id="line2d_38">
    <path d="M 296.655553 118.15487 
L 320.608803 118.143215 
L 344.562053 118.158709 
L 368.515303 118.14404 
L 392.468553 118.137545 
L 416.421803 118.165911 
L 440.375053 118.144153 
L 464.328303 118.076269 
" clip-path="url(#p14240cc0c1)" style="fill: none; stroke: #0072b2; stroke-width: 1.65; stroke-linecap: square"/>
    <g clip-path="url(#p14240cc0c1)">
     <use xlink:href="#mfdc39e6590" x="296.655553" y="118.15487" style="fill: #0072b2; stroke: #0072b2"/>
     <use xlink:href="#mfdc39e6590" x="320.608803" y="118.143215" style="fill: #0072b2; stroke: #0072b2"/>
     <use xlink:href="#mfdc39e6590" x="344.562053" y="118.158709" style="fill: #0072b2; stroke: #0072b2"/>
     <use xlink:href="#mfdc39e6590" x="368.515303" y="118.14404" style="fill: #0072b2; stroke: #0072b2"/>
     <use xlink:href="#mfdc39e6590" x="392.468553" y="118.137545" style="fill: #0072b2; stroke: #0072b2"/>
     <use xlink:href="#mfdc39e6590" x="416.421803" y="118.165911" style="fill: #0072b2; stroke: #0072b2"/>
     <use xlink:href="#mfdc39e6590" x="440.375053" y="118.144153" style="fill: #0072b2; stroke: #0072b2"/>
     <use xlink:href="#mfdc39e6590" x="464.328303" y="118.076269" style="fill: #0072b2; stroke: #0072b2"/>
    </g>
   </g>
   <g id="line2d_39">
    <path d="M 284.866062 118.148995 
L 291.977184 118.125099 
L 292.351453 118.432318 
L 293.474262 117.85226 
L 293.848531 118.372773 
L 294.222801 118.138405 
L 294.59707 118.780697 
L 294.97134 118.350113 
L 295.345609 118.595243 
L 295.719879 117.396466 
L 296.094148 118.408028 
L 296.468418 117.809026 
L 296.842687 117.949819 
L 297.216957 118.526704 
L 297.591227 119.645549 
L 297.965496 119.989416 
L 298.339766 118.541027 
L 298.714035 121.407592 
L 299.088305 115.218235 
L 299.462574 118.719227 
L 299.836844 119.149049 
L 300.211113 125.885468 
L 300.585383 120.33532 
L 300.959652 128.089091 
L 301.333922 118.977006 
L 301.708191 119.387053 
L 302.082461 122.235419 
L 302.45673 121.42846 
L 302.831 115.649807 
L 303.20527 113.766512 
L 303.579539 120.443507 
L 303.953809 120.76766 
L 304.328078 118.381821 
L 304.702348 120.318509 
L 305.076617 117.371821 
L 305.450887 118.827085 
L 305.825156 112.496635 
L 306.199426 115.041265 
L 306.573695 120.033472 
L 306.947965 112.917352 
L 307.696504 121.982953 
L 308.070773 118.376429 
L 308.445043 119.799919 
L 308.819312 119.913633 
L 309.193582 117.820498 
L 309.567852 118.960805 
L 309.942121 120.73203 
L 310.316391 121.475708 
L 311.06493 113.66784 
L 311.439199 126.138361 
L 311.813469 123.454725 
L 312.187738 119.469799 
L 312.562008 120.078856 
L 312.936277 126.984407 
L 313.310547 120.227953 
L 313.684816 115.745164 
L 314.059086 90.379413 
L 314.433355 116.007044 
L 314.807625 119.425734 
L 315.181895 113.761881 
L 315.556164 122.306476 
L 315.930434 113.136196 
L 316.304703 117.685584 
L 316.678973 114.82282 
L 317.053242 113.187444 
L 317.427512 116.214613 
L 317.801781 113.831754 
L 318.176051 114.261733 
L 318.55032 117.391335 
L 318.92459 119.473778 
L 319.298859 123.035512 
L 319.673129 116.08352 
L 320.047398 119.798394 
L 320.421668 125.068012 
L 320.795937 116.7083 
L 321.170207 118.770655 
L 321.544477 117.475101 
L 321.918746 119.390423 
L 322.293016 117.451059 
L 323.041555 119.77302 
L 323.415824 119.559929 
L 323.790094 115.593009 
L 324.164363 120.748104 
L 324.538633 112.237719 
L 324.912902 119.836288 
L 325.287172 112.620047 
L 325.661441 117.44876 
L 326.035711 116.475063 
L 326.40998 118.199009 
L 326.78425 117.534242 
L 327.15852 115.065913 
L 327.532789 116.720791 
L 327.907059 121.11191 
L 328.281328 117.476022 
L 328.655598 117.890381 
L 329.029867 121.464908 
L 329.404137 112.881232 
L 329.778406 120.270234 
L 330.152676 121.175688 
L 330.901215 113.094398 
L 331.275484 104.2479 
L 332.024023 138.117226 
L 332.398293 119.443034 
L 332.772562 129.063079 
L 333.146832 117.470049 
L 333.521102 132.649147 
L 333.895371 99.767458 
L 334.269641 98.584089 
L 334.64391 118.667843 
L 335.01818 116.420529 
L 335.392449 100.464748 
L 335.766719 114.379986 
L 336.140988 117.129928 
L 336.515258 120.74709 
L 336.889527 118.784544 
L 337.263797 125.339779 
L 337.638066 112.794976 
L 338.012336 116.451299 
L 338.386605 115.859045 
L 339.135145 125.496348 
L 339.509414 117.992496 
L 339.883684 113.013463 
L 340.257953 112.950558 
L 340.632223 112.392503 
L 341.006492 112.251475 
L 341.380762 121.129441 
L 341.755031 121.937638 
L 342.129301 115.879158 
L 342.50357 113.338752 
L 342.87784 113.479123 
L 343.252109 130.629009 
L 343.626379 126.498851 
L 344.000648 116.091595 
L 344.374918 126.653949 
L 344.749187 121.381781 
L 345.123457 124.069057 
L 345.497727 112.29524 
L 345.871996 121.769113 
L 346.246266 118.436892 
L 346.620535 128.290731 
L 346.994805 118.496816 
L 347.369074 114.272794 
L 347.743344 118.918623 
L 348.117613 121.394374 
L 348.491883 111.50291 
L 348.866152 111.463937 
L 349.240422 106.750187 
L 349.614691 107.854815 
L 349.988961 104.270062 
L 350.36323 123.37033 
L 350.7375 114.266512 
L 351.11177 120.934878 
L 351.486039 112.444887 
L 351.860309 114.916515 
L 352.234578 118.729948 
L 352.608848 119.685843 
L 352.983117 112.619697 
L 353.357387 113.913816 
L 353.731656 110.742176 
L 354.105926 112.407206 
L 354.480195 116.045272 
L 354.854465 117.788445 
L 355.228734 120.324921 
L 355.603004 109.637278 
L 355.977273 107.848727 
L 356.351543 104.573801 
L 356.725812 120.560126 
L 357.100082 109.107841 
L 357.474352 119.48312 
L 357.848621 110.684506 
L 358.222891 125.34285 
L 359.345699 114.894717 
L 359.719969 130.662087 
L 360.094238 117.790029 
L 360.468508 126.97419 
L 360.842777 110.706647 
L 361.217047 107.722859 
L 361.591316 116.358072 
L 361.965586 118.992433 
L 362.339855 110.41577 
L 362.714125 124.105856 
L 363.088395 128.830755 
L 363.462664 117.800377 
L 363.836934 122.880957 
L 364.211203 102.13099 
L 364.585473 119.72187 
L 364.959742 111.832446 
L 365.334012 120.487098 
L 365.708281 95.73649 
L 366.082551 124.073043 
L 366.45682 118.721303 
L 366.83109 115.016462 
L 367.205359 116.352654 
L 367.579629 118.714284 
L 367.953898 106.75613 
L 368.328168 118.571116 
L 368.702437 113.526678 
L 369.450977 126.612564 
L 369.825246 127.009149 
L 370.199516 128.450247 
L 370.573785 128.467594 
L 370.948055 118.913367 
L 371.322324 112.521119 
L 371.696594 125.565785 
L 372.070863 120.841759 
L 372.445133 112.826053 
L 372.819402 119.271413 
L 373.193672 118.000974 
L 373.567941 99.139637 
L 373.942211 109.086786 
L 374.31648 86.585636 
L 374.69075 116.122168 
L 375.06502 118.060573 
L 375.439289 111.40609 
L 375.813559 113.105652 
L 376.187828 111.98346 
L 376.562098 123.403003 
L 376.936367 123.302711 
L 377.310637 116.067067 
L 377.684906 111.307803 
L 378.059176 114.349761 
L 378.433445 115.258504 
L 378.807715 114.730439 
L 379.556254 118.4314 
L 379.930523 112.538852 
L 380.304793 112.28588 
L 380.679062 117.487531 
L 381.053332 109.0408 
L 381.801871 137.69393 
L 382.176141 125.782672 
L 382.55041 124.015493 
L 382.92468 107.864816 
L 383.298949 113.654058 
L 383.673219 107.901948 
L 384.421758 127.23401 
L 385.170297 112.670592 
L 385.544566 121.702342 
L 385.918836 112.511004 
L 386.293105 112.855082 
L 386.667375 117.31875 
L 387.041645 113.240877 
L 387.415914 115.235189 
L 387.790184 114.99749 
L 388.164453 104.764949 
L 388.538723 115.920755 
L 388.912992 121.195159 
L 389.287262 123.964277 
L 389.661531 109.692292 
L 390.035801 115.475365 
L 390.41007 116.906343 
L 390.78434 120.203982 
L 391.158609 119.62925 
L 391.532879 113.296545 
L 391.907148 121.870871 
L 392.281418 124.161641 
L 392.655687 122.207781 
L 393.029957 127.007819 
L 393.404227 135.742596 
L 393.778496 121.983568 
L 394.152766 113.699698 
L 394.527035 128.491895 
L 394.901305 129.838904 
L 395.275574 105.193596 
L 395.649844 116.538362 
L 396.024113 118.166915 
L 396.398383 114.133441 
L 396.772652 98.644583 
L 397.146922 113.338628 
L 397.521191 108.609563 
L 397.895461 120.275006 
L 398.26973 119.326185 
L 398.644 120.49309 
L 399.01827 126.196135 
L 399.392539 129.151171 
L 399.766809 120.059074 
L 400.141078 114.534255 
L 400.515348 125.965449 
L 400.889617 105.3551 
L 401.263887 113.764784 
L 401.638156 118.836495 
L 402.012426 116.396161 
L 402.386695 110.271727 
L 402.760965 113.058483 
L 403.135234 130.386754 
L 403.509504 114.190085 
L 403.883773 116.00851 
L 404.258043 125.998502 
L 404.632312 110.149729 
L 405.006582 121.332371 
L 405.380852 124.561285 
L 406.129391 106.699175 
L 406.50366 117.62444 
L 406.87793 119.283315 
L 407.252199 112.407601 
L 407.626469 125.313276 
L 408.000738 105.982822 
L 408.375008 119.477012 
L 408.749277 115.645318 
L 409.123547 117.829128 
L 409.497816 109.342693 
L 409.872086 149.54006 
L 410.246355 123.579536 
L 410.620625 132.459126 
L 410.994895 116.990614 
L 411.369164 131.948608 
L 411.743434 112.585028 
L 412.117703 135.151287 
L 412.491973 125.85198 
L 412.866242 123.182014 
L 413.240512 109.352021 
L 413.614781 102.035484 
L 413.989051 110.308718 
L 414.36332 95.83022 
L 414.73759 123.325722 
L 415.111859 110.508215 
L 415.486129 111.264623 
L 415.860398 121.646175 
L 416.234668 112.86363 
L 416.608937 121.321189 
L 416.983207 108.733362 
L 417.357477 120.735909 
L 417.731746 110.477173 
L 418.106016 113.609314 
L 418.480285 114.371929 
L 418.854555 123.869203 
L 419.228824 115.109697 
L 419.603094 116.760956 
L 419.977363 123.209622 
L 420.351633 123.624029 
L 420.725902 113.23273 
L 421.100172 114.494079 
L 421.474441 121.911299 
L 421.848711 117.557334 
L 422.22298 116.729967 
L 422.59725 114.749731 
L 422.97152 121.687621 
L 423.345789 109.640019 
L 424.094328 121.457627 
L 424.468598 113.367561 
L 424.842867 130.388871 
L 425.217137 132.406739 
L 425.591406 103.842471 
L 425.965676 118.904228 
L 426.339945 141.537766 
L 426.714215 130.914408 
L 427.088484 136.972743 
L 427.462754 108.18812 
L 427.837023 121.468009 
L 428.211293 108.934676 
L 428.959832 105.898474 
L 429.334102 118.888024 
L 429.708371 137.269737 
L 430.45691 114.969047 
L 430.83118 113.425862 
L 431.205449 112.58162 
L 431.579719 125.979626 
L 431.953988 126.249734 
L 432.328258 115.203369 
L 432.702527 127.479547 
L 433.076797 127.384259 
L 433.825336 122.616516 
L 434.199605 113.859385 
L 434.573875 115.128976 
L 434.948145 118.908899 
L 435.322414 131.868559 
L 435.696684 115.594054 
L 436.070953 122.019117 
L 436.445223 123.223512 
L 436.819492 122.13268 
L 437.193762 134.735168 
L 437.568031 127.509243 
L 437.942301 133.162199 
L 438.31657 122.665712 
L 438.69084 122.071033 
L 439.065109 112.317476 
L 439.439379 124.412439 
L 439.813648 118.115202 
L 440.562187 126.707071 
L 440.936457 134.867494 
L 441.310727 149.542955 
L 441.684996 106.090743 
L 442.059266 99.310215 
L 442.433535 127.523952 
L 442.807805 115.679124 
L 443.182074 114.585043 
L 443.556344 115.499142 
L 443.930613 123.865917 
L 444.304883 118.095042 
L 444.679152 120.599937 
L 445.053422 114.492164 
L 445.427691 125.483315 
L 445.801961 122.826432 
L 446.17623 117.741738 
L 446.5505 103.289085 
L 446.92477 117.803615 
L 447.299039 116.828993 
L 447.673309 120.349826 
L 448.047578 116.893818 
L 448.421848 116.43844 
L 448.796117 125.288276 
L 449.170387 130.711213 
L 449.544656 128.977611 
L 449.918926 121.05407 
L 450.293195 122.04969 
L 450.667465 124.545086 
L 451.041734 129.120389 
L 451.416004 136.48412 
L 451.790273 104.426425 
L 452.164543 109.187344 
L 452.913082 128.089193 
L 453.287352 107.79878 
L 453.661621 98.360029 
L 454.035891 119.270217 
L 454.41016 128.951187 
L 454.78443 116.282412 
L 455.158699 118.727651 
L 455.532969 103.876834 
L 455.907238 117.878182 
L 456.281508 108.781255 
L 456.655777 127.098032 
L 457.030047 107.127937 
L 457.404316 109.012091 
L 457.778586 120.243846 
L 458.152855 123.792341 
L 458.527125 116.807447 
L 458.901395 128.199575 
L 459.275664 175.978364 
L 459.649934 134.101862 
L 460.024203 123.259152 
L 460.398473 99.196572 
L 460.772742 102.702747 
L 461.147012 115.418347 
L 461.521281 107.140466 
L 461.895551 116.362379 
L 462.26982 120.501931 
L 463.018359 110.688307 
L 463.392629 118.944824 
L 463.766898 107.020414 
L 464.141168 128.546103 
L 464.515437 126.174639 
L 464.889707 121.204647 
L 465.263977 145.53591 
L 465.638246 137.752191 
L 466.012516 113.096352 
L 466.386785 110.088818 
L 466.761055 132.041715 
L 467.135324 120.732785 
L 467.509594 125.657898 
L 467.883863 120.315971 
L 468.258133 139.465868 
L 468.632402 117.670379 
L 469.006672 133.404947 
L 469.380941 110.602134 
L 469.755211 123.88009 
L 470.12948 112.141302 
L 470.50375 113.810291 
L 470.87802 121.660198 
L 471.252289 115.518301 
L 471.626559 114.113127 
L 472.000828 115.178932 
L 472.375098 110.113346 
L 472.749367 133.112477 
L 473.123637 120.648285 
L 473.497906 121.186315 
L 473.872176 126.347355 
L 474.246445 124.384569 
L 474.620715 120.794735 
L 474.994984 114.748951 
L 475.369254 121.693483 
L 476.117793 95.77587 
L 476.117793 95.77587 
" clip-path="url(#p14240cc0c1)" style="fill: none; stroke: #d55e00; stroke-opacity: 0.2; stroke-width: 0.65; stroke-linecap: square"/>
   </g>
   <g id="line2d_40">
    <path d="M 296.655553 118.603421 
L 320.608803 117.85856 
L 344.562053 116.358076 
L 368.515303 116.525072 
L 392.468553 117.980115 
L 416.421803 118.367462 
L 440.375053 121.00967 
L 464.328303 119.363495 
" clip-path="url(#p14240cc0c1)" style="fill: none; stroke: #d55e00; stroke-width: 1.65; stroke-linecap: square"/>
    <g clip-path="url(#p14240cc0c1)">
     <use xlink:href="#m86c71138df" x="296.655553" y="118.603421" style="fill: #d55e00; stroke: #d55e00"/>
     <use xlink:href="#m86c71138df" x="320.608803" y="117.85856" style="fill: #d55e00; stroke: #d55e00"/>
     <use xlink:href="#m86c71138df" x="344.562053" y="116.358076" style="fill: #d55e00; stroke: #d55e00"/>
     <use xlink:href="#m86c71138df" x="368.515303" y="116.525072" style="fill: #d55e00; stroke: #d55e00"/>
     <use xlink:href="#m86c71138df" x="392.468553" y="117.980115" style="fill: #d55e00; stroke: #d55e00"/>
     <use xlink:href="#m86c71138df" x="416.421803" y="118.367462" style="fill: #d55e00; stroke: #d55e00"/>
     <use xlink:href="#m86c71138df" x="440.375053" y="121.00967" style="fill: #d55e00; stroke: #d55e00"/>
     <use xlink:href="#m86c71138df" x="464.328303" y="119.363495" style="fill: #d55e00; stroke: #d55e00"/>
    </g>
   </g>
   <g id="line2d_41">
    <path d="M 284.866062 118.148995 
L 329.029867 118.146233 
L 329.404137 118.329785 
L 329.778406 118.146794 
L 330.152676 118.238838 
L 330.526945 118.050901 
L 331.649754 118.184028 
L 332.024023 118.150728 
L 332.398293 118.353267 
L 332.772562 118.136924 
L 333.146832 118.282285 
L 333.521102 118.15969 
L 334.269641 118.267921 
L 334.64391 118.139611 
L 335.01818 118.229703 
L 335.392449 118.160006 
L 335.766719 118.275298 
L 336.515258 118.21936 
L 336.889527 118.315586 
L 337.263797 118.134823 
L 337.638066 118.172009 
L 338.012336 118.072158 
L 338.386605 118.318272 
L 338.760875 118.079651 
L 339.509414 118.305809 
L 339.883684 118.200168 
L 340.257953 118.355172 
L 340.632223 118.093515 
L 341.006492 118.085871 
L 341.380762 118.210681 
L 343.252109 118.232231 
L 343.626379 117.986218 
L 344.000648 118.210463 
L 344.374918 118.091473 
L 344.749187 118.477386 
L 345.123457 118.070839 
L 345.497727 118.626724 
L 346.246266 118.096179 
L 346.620535 118.58408 
L 346.994805 117.999526 
L 347.369074 118.295352 
L 348.117613 118.40413 
L 348.491883 118.140942 
L 348.866152 118.06563 
L 349.240422 118.388762 
L 349.614691 118.249249 
L 351.11177 118.30673 
L 351.486039 118.557565 
L 351.860309 118.329224 
L 352.234578 118.251757 
L 352.983117 118.356613 
L 353.357387 118.030256 
L 353.731656 118.334208 
L 354.105926 118.130917 
L 354.480195 118.240554 
L 354.854465 118.150673 
L 355.228734 118.364917 
L 355.603004 118.39057 
L 355.977273 118.685742 
L 356.725812 118.048128 
L 357.100082 118.256811 
L 357.474352 118.079213 
L 357.848621 118.338377 
L 358.222891 118.056091 
L 358.59716 118.326275 
L 359.345699 118.141587 
L 359.719969 118.040983 
L 360.094238 118.420039 
L 360.468508 118.535341 
L 361.217047 118.134504 
L 361.965586 118.440423 
L 362.714125 118.521493 
L 363.088395 118.223331 
L 363.462664 118.464631 
L 363.836934 118.414765 
L 364.211203 117.762504 
L 364.585473 118.357674 
L 364.959742 118.48305 
L 365.334012 118.776856 
L 365.708281 118.040323 
L 366.082551 118.369743 
L 366.45682 118.294105 
L 366.83109 118.348178 
L 367.205359 118.528931 
L 367.579629 118.557713 
L 367.953898 118.760534 
L 368.702437 118.189546 
L 369.076707 118.324039 
L 369.450977 118.271785 
L 369.825246 118.036353 
L 370.199516 118.62688 
L 370.573785 118.176084 
L 371.322324 118.448642 
L 371.696594 118.476724 
L 372.070863 118.186171 
L 372.445133 118.292606 
L 372.819402 118.128839 
L 373.942211 118.577048 
L 374.31648 118.400899 
L 374.69075 118.490867 
L 375.439289 118.305051 
L 375.813559 118.767318 
L 376.187828 118.343284 
L 376.562098 118.438952 
L 376.936367 118.007521 
L 378.059176 118.307878 
L 378.433445 118.343081 
L 378.807715 117.926135 
L 379.181984 118.322519 
L 379.556254 118.485732 
L 379.930523 118.255805 
L 380.679062 118.254334 
L 381.427602 118.149425 
L 382.176141 118.420686 
L 382.55041 118.63027 
L 382.92468 118.28312 
L 383.298949 118.640862 
L 383.673219 118.118861 
L 384.047488 118.232896 
L 384.421758 118.522006 
L 385.170297 118.333247 
L 385.544566 118.853206 
L 385.918836 118.239332 
L 386.293105 118.776517 
L 386.667375 118.448849 
L 387.041645 118.30956 
L 387.415914 118.55281 
L 387.790184 118.216972 
L 388.538723 118.488363 
L 388.912992 117.906874 
L 389.287262 118.281887 
L 389.661531 118.111749 
L 391.158609 118.395108 
L 391.532879 118.646706 
L 391.907148 118.342345 
L 392.281418 118.406453 
L 392.655687 118.888573 
L 393.029957 118.656268 
L 393.404227 118.262101 
L 393.778496 118.403691 
L 394.152766 118.87466 
L 394.527035 118.453858 
L 394.901305 117.212544 
L 395.275574 118.39792 
L 396.024113 118.654554 
L 396.398383 118.66713 
L 396.772652 118.408253 
L 397.146922 118.460105 
L 398.26973 118.21593 
L 398.644 118.524953 
L 399.01827 118.588253 
L 399.392539 118.440353 
L 399.766809 118.44181 
L 400.141078 118.712367 
L 400.515348 118.550175 
L 400.889617 118.631552 
L 401.263887 118.151865 
L 401.638156 118.971936 
L 402.386695 118.363609 
L 402.760965 118.694344 
L 403.135234 118.304395 
L 403.509504 118.516035 
L 403.883773 119.000936 
L 404.258043 118.26285 
L 404.632312 118.340429 
L 405.006582 118.926626 
L 405.380852 118.091536 
L 405.755121 118.518959 
L 406.129391 117.981658 
L 406.50366 119.442783 
L 406.87793 118.588218 
L 407.252199 118.222737 
L 407.626469 118.576607 
L 408.000738 118.684168 
L 408.749277 118.265749 
L 409.123547 118.611231 
L 409.497816 118.400921 
L 409.872086 117.578365 
L 410.620625 118.783656 
L 410.994895 118.372059 
L 411.369164 118.517792 
L 411.743434 117.953019 
L 412.117703 118.043574 
L 412.491973 118.562987 
L 412.866242 118.798723 
L 413.240512 118.872268 
L 413.614781 119.434372 
L 413.989051 119.057017 
L 414.36332 118.339626 
L 414.73759 118.554004 
L 415.111859 118.931921 
L 415.486129 118.220536 
L 415.860398 118.167632 
L 416.234668 117.70605 
L 416.983207 119.295386 
L 417.357477 118.511926 
L 417.731746 118.853836 
L 418.106016 118.459582 
L 418.480285 118.759019 
L 418.854555 118.083556 
L 419.228824 118.902287 
L 419.603094 117.652747 
L 419.977363 117.799366 
L 420.351633 117.70894 
L 420.725902 118.69283 
L 421.100172 117.918989 
L 421.474441 119.113207 
L 421.848711 118.874806 
L 422.22298 119.044566 
L 422.59725 118.10919 
L 422.97152 119.175802 
L 423.345789 119.045397 
L 423.720059 118.448055 
L 424.094328 118.563095 
L 424.468598 118.840734 
L 424.842867 118.936227 
L 425.217137 118.10672 
L 426.339945 119.488018 
L 426.714215 118.203982 
L 427.088484 119.311622 
L 427.462754 118.625356 
L 427.837023 118.955822 
L 428.211293 118.697075 
L 428.585562 119.17227 
L 428.959832 119.017467 
L 429.334102 119.041814 
L 429.708371 118.264463 
L 430.082641 118.942936 
L 430.45691 119.036224 
L 430.83118 119.367624 
L 431.205449 118.629854 
L 431.579719 118.636592 
L 431.953988 119.048219 
L 432.328258 119.021175 
L 432.702527 118.786047 
L 433.076797 117.609243 
L 433.451066 118.009778 
L 433.825336 118.891017 
L 434.199605 118.604357 
L 434.573875 117.897013 
L 434.948145 118.11474 
L 435.322414 119.379236 
L 435.696684 119.549587 
L 436.070953 118.213731 
L 436.819492 119.1367 
L 437.193762 118.719197 
L 437.568031 117.247247 
L 437.942301 118.11774 
L 438.31657 118.167611 
L 438.69084 118.56478 
L 439.065109 118.130352 
L 439.439379 118.765983 
L 439.813648 118.29189 
L 440.187918 118.137167 
L 440.562187 119.152767 
L 440.936457 119.668392 
L 441.310727 119.390946 
L 441.684996 119.876596 
L 442.059266 117.908495 
L 442.433535 119.007591 
L 442.807805 117.953995 
L 443.182074 117.490377 
L 443.556344 118.766391 
L 444.304883 119.241269 
L 444.679152 118.719705 
L 445.053422 117.572207 
L 445.427691 118.46112 
L 445.801961 118.1832 
L 446.17623 117.212743 
L 446.5505 120.448586 
L 446.92477 118.379806 
L 447.299039 119.024214 
L 447.673309 119.015295 
L 448.047578 119.437922 
L 448.421848 119.403028 
L 448.796117 120.548081 
L 449.170387 119.765611 
L 449.544656 118.58583 
L 449.918926 118.474721 
L 450.293195 119.349528 
L 450.667465 119.341299 
L 451.041734 118.571507 
L 451.416004 119.78627 
L 451.790273 119.747787 
L 452.538812 118.65027 
L 452.913082 119.046436 
L 453.287352 118.702067 
L 453.661621 120.082003 
L 454.035891 119.363605 
L 454.78443 119.046178 
L 455.158699 118.172245 
L 455.532969 120.445797 
L 455.907238 118.155865 
L 456.281508 118.31105 
L 456.655777 119.547762 
L 457.030047 118.635129 
L 457.404316 119.774978 
L 457.778586 119.25946 
L 458.152855 119.22015 
L 458.527125 118.627939 
L 458.901395 118.761599 
L 459.275664 116.736118 
L 459.649934 118.570205 
L 460.024203 118.424623 
L 460.398473 119.526406 
L 460.772742 119.092037 
L 461.147012 118.325241 
L 461.521281 120.467616 
L 461.895551 118.052552 
L 462.26982 119.12503 
L 462.64409 118.191088 
L 463.018359 118.91688 
L 463.766898 118.137338 
L 464.141168 117.27395 
L 464.515437 118.470657 
L 464.889707 118.741819 
L 465.263977 120.923672 
L 465.638246 119.029532 
L 466.761055 119.649237 
L 467.135324 119.52389 
L 467.509594 118.275182 
L 467.883863 118.237405 
L 468.258133 117.813525 
L 468.632402 119.500201 
L 469.006672 118.265919 
L 469.755211 119.662506 
L 470.12948 118.582913 
L 470.87802 119.099776 
L 471.252289 119.035758 
L 472.375098 122.460627 
L 472.749367 118.728167 
L 473.123637 118.688865 
L 473.497906 120.623839 
L 473.872176 118.656442 
L 474.246445 120.231374 
L 474.620715 119.11025 
L 475.369254 118.403562 
L 475.743523 118.424666 
L 476.117793 118.295278 
L 476.117793 118.295278 
" clip-path="url(#p14240cc0c1)" style="fill: none; stroke: #009e73; stroke-opacity: 0.2; stroke-width: 0.65; stroke-linecap: square"/>
   </g>
   <g id="line2d_42">
    <path d="M 296.655553 118.152315 
L 320.608803 118.176781 
L 344.562053 118.25256 
L 368.515303 118.324771 
L 392.468553 118.423489 
L 416.421803 118.555294 
L 440.375053 118.776934 
L 464.328303 119.025857 
" clip-path="url(#p14240cc0c1)" style="fill: none; stroke: #009e73; stroke-width: 1.65; stroke-linecap: square"/>
    <g clip-path="url(#p14240cc0c1)">
     <use xlink:href="#m46f68a1c36" x="296.655553" y="118.152315" style="fill: #009e73; stroke: #009e73"/>
     <use xlink:href="#m46f68a1c36" x="320.608803" y="118.176781" style="fill: #009e73; stroke: #009e73"/>
     <use xlink:href="#m46f68a1c36" x="344.562053" y="118.25256" style="fill: #009e73; stroke: #009e73"/>
     <use xlink:href="#m46f68a1c36" x="368.515303" y="118.324771" style="fill: #009e73; stroke: #009e73"/>
     <use xlink:href="#m46f68a1c36" x="392.468553" y="118.423489" style="fill: #009e73; stroke: #009e73"/>
     <use xlink:href="#m46f68a1c36" x="416.421803" y="118.555294" style="fill: #009e73; stroke: #009e73"/>
     <use xlink:href="#m46f68a1c36" x="440.375053" y="118.776934" style="fill: #009e73; stroke: #009e73"/>
     <use xlink:href="#m46f68a1c36" x="464.328303" y="119.025857" style="fill: #009e73; stroke: #009e73"/>
    </g>
   </g>
   <g id="line2d_43">
    <path d="M 284.866062 118.148995 
L 476.492062 118.148995 
" clip-path="url(#p14240cc0c1)" style="fill: none; stroke: #777777; stroke-width: 0.7; stroke-linecap: square"/>
   </g>
   <g id="patch_8">
    <path d="M 284.866062 180.448 
L 284.866062 82.116 
" style="fill: none; stroke: #000000; stroke-width: 0.8; stroke-linejoin: miter; stroke-linecap: square"/>
   </g>
   <g id="patch_9">
    <path d="M 284.866062 180.448 
L 476.492062 180.448 
" style="fill: none; stroke: #000000; stroke-width: 0.8; stroke-linejoin: miter; stroke-linecap: square"/>
   </g>
   <g id="text_26">
    <!-- (b) Paired remaining response $\Delta\varepsilon$ -->
    <g transform="translate(297.129062 66.125437)">
     <text>
      <tspan x="0" y="-0.40625" style="font-size: 10px; font-family: 'DejaVu Sans'">(</tspan>
      <tspan x="3.901367" y="-0.40625" style="font-size: 10px; font-family: 'DejaVu Sans'">b</tspan>
      <tspan x="10.249023" y="-0.40625" style="font-size: 10px; font-family: 'DejaVu Sans'">)</tspan>
      <tspan x="14.150391" y="-0.40625" style="font-size: 10px; font-family: 'DejaVu Sans'"> </tspan>
      <tspan x="17.329102" y="-0.40625" style="font-size: 10px; font-family: 'DejaVu Sans'">P</tspan>
      <tspan x="23.359375" y="-0.40625" style="font-size: 10px; font-family: 'DejaVu Sans'">a</tspan>
      <tspan x="29.487305" y="-0.40625" style="font-size: 10px; font-family: 'DejaVu Sans'">i</tspan>
      <tspan x="32.265625" y="-0.40625" style="font-size: 10px; font-family: 'DejaVu Sans'">r</tspan>
      <tspan x="36.376953" y="-0.40625" style="font-size: 10px; font-family: 'DejaVu Sans'">e</tspan>
      <tspan x="42.529297" y="-0.40625" style="font-size: 10px; font-family: 'DejaVu Sans'">d</tspan>
      <tspan x="48.876953" y="-0.40625" style="font-size: 10px; font-family: 'DejaVu Sans'"> </tspan>
      <tspan x="52.055664" y="-0.40625" style="font-size: 10px; font-family: 'DejaVu Sans'">r</tspan>
      <tspan x="56.166992" y="-0.40625" style="font-size: 10px; font-family: 'DejaVu Sans'">e</tspan>
      <tspan x="62.319336" y="-0.40625" style="font-size: 10px; font-family: 'DejaVu Sans'">m</tspan>
      <tspan x="72.060547" y="-0.40625" style="font-size: 10px; font-family: 'DejaVu Sans'">a</tspan>
      <tspan x="78.188477" y="-0.40625" style="font-size: 10px; font-family: 'DejaVu Sans'">i</tspan>
      <tspan x="80.966797" y="-0.40625" style="font-size: 10px; font-family: 'DejaVu Sans'">n</tspan>
      <tspan x="87.304688" y="-0.40625" style="font-size: 10px; font-family: 'DejaVu Sans'">i</tspan>
      <tspan x="90.083008" y="-0.40625" style="font-size: 10px; font-family: 'DejaVu Sans'">n</tspan>
      <tspan x="96.420898" y="-0.40625" style="font-size: 10px; font-family: 'DejaVu Sans'">g</tspan>
      <tspan x="102.768555" y="-0.40625" style="font-size: 10px; font-family: 'DejaVu Sans'"> </tspan>
      <tspan x="105.947266" y="-0.40625" style="font-size: 10px; font-family: 'DejaVu Sans'">r</tspan>
      <tspan x="110.058594" y="-0.40625" style="font-size: 10px; font-family: 'DejaVu Sans'">e</tspan>
      <tspan x="116.210938" y="-0.40625" style="font-size: 10px; font-family: 'DejaVu Sans'">s</tspan>
      <tspan x="121.420898" y="-0.40625" style="font-size: 10px; font-family: 'DejaVu Sans'">p</tspan>
      <tspan x="127.768555" y="-0.40625" style="font-size: 10px; font-family: 'DejaVu Sans'">o</tspan>
      <tspan x="133.886719" y="-0.40625" style="font-size: 10px; font-family: 'DejaVu Sans'">n</tspan>
      <tspan x="140.224609" y="-0.40625" style="font-size: 10px; font-family: 'DejaVu Sans'">s</tspan>
      <tspan x="145.43457" y="-0.40625" style="font-size: 10px; font-family: 'DejaVu Sans'">e</tspan>
      <tspan x="151.586914" y="-0.40625" style="font-size: 10px; font-family: 'DejaVu Sans'"> </tspan>
      <tspan x="154.765625" y="-0.40625" style="font-size: 10px; font-family: 'DejaVu Sans'">Δ</tspan>
      <tspan x="161.606445" y="-0.40625" style="font-style: oblique; font-size: 10px; font-family: 'DejaVu Sans'">ε</tspan>
     </text>
    </g>
   </g>
  </g>
  <g id="legend_2">
   <g id="line2d_44">
    <path d="M 59.66775 20.463469 
L 68.66775 20.463469 
L 77.66775 20.463469 
" style="fill: none; stroke: #0072b2; stroke-width: 1.65; stroke-linecap: square"/>
    <g>
     <use xlink:href="#mfdc39e6590" x="68.66775" y="20.463469" style="fill: #0072b2; stroke: #0072b2"/>
    </g>
   </g>
   <g id="text_27">
    <text style="font-size: 9px; font-family: 'DejaVu Sans'" transform="translate(84.86775 17.638594)">SGD − Heavy Ball</text>
    <text style="font-size: 9px; font-family: 'DejaVu Sans'" transform="translate(84.86775 27.716625)">effective h=3e-08</text>
   </g>
   <g id="line2d_45">
    <path d="M 175.191187 20.463469 
L 184.191187 20.463469 
L 193.191187 20.463469 
" style="fill: none; stroke: #d55e00; stroke-width: 1.65; stroke-linecap: square"/>
    <g>
     <use xlink:href="#m86c71138df" x="184.191187" y="20.463469" style="fill: #d55e00; stroke: #d55e00"/>
    </g>
   </g>
   <g id="text_28">
    <text style="font-size: 9px; font-family: 'DejaVu Sans'" transform="translate(200.391187 17.638594)">SGD − Heavy Ball</text>
    <text style="font-size: 9px; font-family: 'DejaVu Sans'" transform="translate(200.391187 27.716625)">effective h=3e-07</text>
   </g>
   <g id="line2d_46">
    <path d="M 290.714625 20.463469 
L 299.714625 20.463469 
L 308.714625 20.463469 
" style="fill: none; stroke: #009e73; stroke-width: 1.65; stroke-linecap: square"/>
    <g>
     <use xlink:href="#m46f68a1c36" x="299.714625" y="20.463469" style="fill: #009e73; stroke: #009e73"/>
    </g>
   </g>
   <g id="text_29">
    <text style="font-size: 9px; font-family: 'DejaVu Sans'" transform="translate(315.914625 17.638594)">Adam − Head only</text>
    <text style="font-size: 9px; font-family: 'DejaVu Sans'" transform="translate(315.914625 27.716625)">raw η=3.03e-09 / 3e-08</text>
   </g>
  </g>
 </g>
 <defs>
  <clipPath id="pc3d8a97baf">
   <rect x="49.444063" y="82.116" width="191.626" height="98.332"/>
  </clipPath>
  <clipPath id="p14240cc0c1">
   <rect x="284.866062" y="82.116" width="191.626" height="98.332"/>
  </clipPath>
 </defs>
</svg>
